<svg width="33" height="590" viewBox="0 0 33 590" fill="none" xmlns="http://www.w3.org/2000/svg">
<path d="M0.000952991 15.6401C0.000953368 7.01641 7.01738 -1.06061e-06 15.6411 -6.83653e-07C24.2648 -3.06698e-07 31.2812 7.01642 31.2812 15.6401C31.2812 24.0811 17.0798 35.676 16.4755 36.1647L15.6411 36.84L14.8067 36.1647C14.2024 35.676 0.000952622 24.0811 0.000952991 15.6401ZM28.6302 15.6401C28.6302 8.47785 22.8034 2.65105 15.642 2.65105C8.47976 2.65105 2.65294 8.47785 2.65294 15.6401C2.65294 21.2074 11.361 29.7677 15.642 33.4104C19.9222 29.7677 28.6302 21.2084 28.6302 15.6401Z" fill="#550000"/>
<path d="M32.2803 574.2C32.2803 582.823 25.2639 589.84 16.6401 589.84C8.01643 589.84 1 582.823 1 574.2C1 565.759 15.2014 554.164 15.8057 553.675L16.6402 553L17.4746 553.675C18.0789 554.164 32.2803 565.759 32.2803 574.2ZM3.65105 574.2C3.65105 581.362 9.47787 587.189 16.6392 587.189C23.8015 587.189 29.6283 581.362 29.6283 574.2C29.6283 568.632 20.9203 560.072 16.6392 556.429C12.3591 560.072 3.65106 568.631 3.65105 574.2Z" fill="#550000"/>
<path d="M18.0156 14.8297C18.0156 16.294 16.8279 17.4817 15.3636 17.4817C13.8994 17.4817 12.7116 16.295 12.7116 14.8297C12.7116 13.3655 13.8994 12.1777 15.3636 12.1777C16.8279 12.1777 18.0156 13.3645 18.0156 14.8297Z" fill="#EDE8D0"/>
<path d="M14.2656 575.009C14.2656 573.545 15.4533 572.357 16.9176 572.357C18.3819 572.357 19.5696 573.544 19.5696 575.009C19.5696 576.473 18.3819 577.661 16.9176 577.661C15.4533 577.661 14.2656 576.474 14.2656 575.009Z" fill="#EDE8D0"/>
<path d="M0.999734 54.5189C0.999734 51.1604 2.27837 47.8027 4.83471 45.2455L16.0782 34.002L27.3217 45.2455C32.4344 50.3581 32.4344 58.6788 27.3217 63.7914L16.0782 75.035L4.83471 63.7914C2.27742 61.2351 0.999734 57.8765 0.999734 54.5189ZM16.0773 37.7517L6.7091 47.1198C2.62976 51.2001 2.63071 57.8377 6.7091 61.9161L16.0773 71.2843L25.4464 61.9161C29.5248 57.8367 29.5248 51.1992 25.4464 47.1198L16.0773 37.7517Z" fill="#550000"/>
<path d="M0.999734 54.5179C0.999734 51.1594 2.27837 47.8018 4.83471 45.2445L16.0782 34.001L27.3217 45.2445C32.4344 50.3572 32.4344 58.6778 27.3217 63.7905L16.0782 75.034L4.83471 63.7905C2.27742 61.2341 0.999734 57.8756 0.999734 54.5179ZM16.0773 37.7507L6.7091 47.1189C2.62976 51.1991 2.63071 57.8367 6.7091 61.9151L16.0773 71.2833L25.4464 61.9151C29.5248 57.8358 29.5248 51.1982 25.4464 47.1189L16.0773 37.7507Z" fill="#550000"/>
<path d="M0.999734 91.5179C0.999734 88.1594 2.27837 84.8018 4.83471 82.2445L16.0782 71.001L27.3217 82.2445C32.4344 87.3572 32.4344 95.6778 27.3217 100.79L16.0782 112.034L4.83471 100.79C2.27742 98.2341 0.999734 94.8756 0.999734 91.5179ZM16.0773 74.7507L6.7091 84.1189C2.62976 88.1991 2.63071 94.8367 6.7091 98.9151L16.0773 108.283L25.4464 98.9151C29.5248 94.8358 29.5248 88.1982 25.4464 84.1189L16.0773 74.7507Z" fill="#550000"/>
<path d="M0.999734 128.518C0.999734 125.159 2.27837 121.802 4.83471 119.244L16.0782 108.001L27.3217 119.244C32.4344 124.357 32.4344 132.678 27.3217 137.79L16.0782 149.034L4.83471 137.79C2.27742 135.234 0.999734 131.876 0.999734 128.518ZM16.0773 111.751L6.7091 121.119C2.62976 125.199 2.63071 131.837 6.7091 135.915L16.0773 145.283L25.4464 135.915C29.5248 131.836 29.5248 125.198 25.4464 121.119L16.0773 111.751Z" fill="#550000"/>
<path d="M0.999734 165.518C0.999734 162.159 2.27837 158.802 4.83471 156.244L16.0782 145.001L27.3217 156.244C32.4344 161.357 32.4344 169.678 27.3217 174.79L16.0782 186.034L4.83471 174.79C2.27742 172.234 0.999734 168.876 0.999734 165.518ZM16.0773 148.751L6.7091 158.119C2.62976 162.199 2.63071 168.837 6.7091 172.915L16.0773 182.283L25.4464 172.915C29.5248 168.836 29.5248 162.198 25.4464 158.119L16.0773 148.751Z" fill="#550000"/>
<path d="M0.999734 202.518C0.999734 199.159 2.27837 195.802 4.83471 193.244L16.0782 182.001L27.3217 193.244C32.4344 198.357 32.4344 206.678 27.3217 211.79L16.0782 223.034L4.83471 211.79C2.27742 209.234 0.999734 205.876 0.999734 202.518ZM16.0773 185.751L6.7091 195.119C2.62976 199.199 2.63071 205.837 6.7091 209.915L16.0773 219.283L25.4464 209.915C29.5248 205.836 29.5248 199.198 25.4464 195.119L16.0773 185.751Z" fill="#550000"/>
<path d="M0.999734 239.518C0.999734 236.159 2.27837 232.802 4.83471 230.244L16.0782 219.001L27.3217 230.244C32.4344 235.357 32.4344 243.678 27.3217 248.79L16.0782 260.034L4.83471 248.79C2.27742 246.234 0.999734 242.876 0.999734 239.518ZM16.0773 222.751L6.7091 232.119C2.62976 236.199 2.63071 242.837 6.7091 246.915L16.0773 256.283L25.4464 246.915C29.5248 242.836 29.5248 236.198 25.4464 232.119L16.0773 222.751Z" fill="#550000"/>
<path d="M0.999734 276.518C0.999734 273.159 2.27837 269.802 4.83471 267.244L16.0782 256.001L27.3217 267.244C32.4344 272.357 32.4344 280.678 27.3217 285.79L16.0782 297.034L4.83471 285.79C2.27742 283.234 0.999734 279.876 0.999734 276.518ZM16.0773 259.751L6.7091 269.119C2.62976 273.199 2.63071 279.837 6.7091 283.915L16.0773 293.283L25.4464 283.915C29.5248 279.836 29.5248 273.198 25.4464 269.119L16.0773 259.751Z" fill="#550000"/>
<path d="M0.999734 313.518C0.999734 310.159 2.27837 306.802 4.83471 304.244L16.0782 293.001L27.3217 304.244C32.4344 309.357 32.4344 317.678 27.3217 322.79L16.0782 334.034L4.83471 322.79C2.27742 320.234 0.999734 316.876 0.999734 313.518ZM16.0773 296.751L6.7091 306.119C2.62976 310.199 2.63071 316.837 6.7091 320.915L16.0773 330.283L25.4464 320.915C29.5248 316.836 29.5248 310.198 25.4464 306.119L16.0773 296.751Z" fill="#550000"/>
<path d="M0.999734 350.518C0.999734 347.159 2.27837 343.802 4.83471 341.244L16.0782 330.001L27.3217 341.244C32.4344 346.357 32.4344 354.678 27.3217 359.79L16.0782 371.034L4.83471 359.79C2.27742 357.234 0.999734 353.876 0.999734 350.518ZM16.0773 333.751L6.7091 343.119C2.62976 347.199 2.63071 353.837 6.7091 357.915L16.0773 367.283L25.4464 357.915C29.5248 353.836 29.5248 347.198 25.4464 343.119L16.0773 333.751Z" fill="#550000"/>
<path d="M0.999734 387.518C0.999734 384.159 2.27837 380.802 4.83471 378.244L16.0782 367.001L27.3217 378.244C32.4344 383.357 32.4344 391.678 27.3217 396.79L16.0782 408.034L4.83471 396.79C2.27742 394.234 0.999734 390.876 0.999734 387.518ZM16.0773 370.751L6.7091 380.119C2.62976 384.199 2.63071 390.837 6.7091 394.915L16.0773 404.283L25.4464 394.915C29.5248 390.836 29.5248 384.198 25.4464 380.119L16.0773 370.751Z" fill="#550000"/>
<path d="M0.999734 424.518C0.999734 421.159 2.27837 417.802 4.83471 415.244L16.0782 404.001L27.3217 415.244C32.4344 420.357 32.4344 428.678 27.3217 433.79L16.0782 445.034L4.83471 433.79C2.27742 431.234 0.999734 427.876 0.999734 424.518ZM16.0773 407.751L6.7091 417.119C2.62976 421.199 2.63071 427.837 6.7091 431.915L16.0773 441.283L25.4464 431.915C29.5248 427.836 29.5248 421.198 25.4464 417.119L16.0773 407.751Z" fill="#550000"/>
<path d="M0.999734 461.518C0.999734 458.159 2.27837 454.802 4.83471 452.244L16.0782 441.001L27.3217 452.244C32.4344 457.357 32.4344 465.678 27.3217 470.79L16.0782 482.034L4.83471 470.79C2.27742 468.234 0.999734 464.876 0.999734 461.518ZM16.0773 444.751L6.7091 454.119C2.62976 458.199 2.63071 464.837 6.7091 468.915L16.0773 478.283L25.4464 468.915C29.5248 464.836 29.5248 458.198 25.4464 454.119L16.0773 444.751Z" fill="#550000"/>
<path d="M0.999734 498.518C0.999734 495.159 2.27837 491.802 4.83471 489.244L16.0782 478.001L27.3217 489.244C32.4344 494.357 32.4344 502.678 27.3217 507.79L16.0782 519.034L4.83471 507.79C2.27742 505.234 0.999734 501.876 0.999734 498.518ZM16.0773 481.751L6.7091 491.119C2.62976 495.199 2.63071 501.837 6.7091 505.915L16.0773 515.283L25.4464 505.915C29.5248 501.836 29.5248 495.198 25.4464 491.119L16.0773 481.751Z" fill="#550000"/>
<path d="M0.999734 535.518C0.999734 532.159 2.27837 528.802 4.83471 526.244L16.0782 515.001L27.3217 526.244C32.4344 531.357 32.4344 539.678 27.3217 544.79L16.0782 556.034L4.83471 544.79C2.27742 542.234 0.999734 538.876 0.999734 535.518ZM16.0773 518.751L6.7091 528.119C2.62976 532.199 2.63071 538.837 6.7091 542.915L16.0773 552.283L25.4464 542.915C29.5248 538.836 29.5248 532.198 25.4464 528.119L16.0773 518.751Z" fill="#550000"/>
<path d="M19.5858 54.7187C19.5706 56.183 18.3706 57.3574 16.9063 57.3423C15.442 57.3271 14.2676 56.1271 14.2827 54.6628C14.2979 53.1985 15.4979 52.0241 16.9622 52.0392C18.4255 52.0544 19.6009 53.2544 19.5858 54.7187Z" fill="#EDE8D0"/>
<path d="M19.5858 91.7187C19.5706 93.183 18.3706 94.3574 16.9063 94.3423C15.442 94.3271 14.2676 93.1271 14.2827 91.6628C14.2979 90.1985 15.4979 89.0241 16.9622 89.0392C18.4255 89.0544 19.6009 90.2544 19.5858 91.7187Z" fill="#EDE8D0"/>
<path d="M19.5858 128.719C19.5706 130.183 18.3706 131.357 16.9063 131.342C15.442 131.327 14.2676 130.127 14.2827 128.663C14.2979 127.198 15.4979 126.024 16.9622 126.039C18.4255 126.054 19.6009 127.254 19.5858 128.719Z" fill="#EDE8D0"/>
<path d="M19.5858 165.719C19.5706 167.183 18.3706 168.357 16.9063 168.342C15.442 168.327 14.2676 167.127 14.2827 165.663C14.2979 164.198 15.4979 163.024 16.9622 163.039C18.4255 163.054 19.6009 164.254 19.5858 165.719Z" fill="#EDE8D0"/>
<path d="M19.5858 202.719C19.5706 204.183 18.3706 205.357 16.9063 205.342C15.442 205.327 14.2676 204.127 14.2827 202.663C14.2979 201.198 15.4979 200.024 16.9622 200.039C18.4255 200.054 19.6009 201.254 19.5858 202.719Z" fill="#EDE8D0"/>
<path d="M19.5858 239.719C19.5706 241.183 18.3706 242.357 16.9063 242.342C15.442 242.327 14.2676 241.127 14.2827 239.663C14.2979 238.198 15.4979 237.024 16.9622 237.039C18.4255 237.054 19.6009 238.254 19.5858 239.719Z" fill="#EDE8D0"/>
<path d="M19.5858 276.719C19.5706 278.183 18.3706 279.357 16.9063 279.342C15.442 279.327 14.2676 278.127 14.2827 276.663C14.2979 275.198 15.4979 274.024 16.9622 274.039C18.4255 274.054 19.6009 275.254 19.5858 276.719Z" fill="#EDE8D0"/>
<path d="M19.5858 313.719C19.5706 315.183 18.3706 316.357 16.9063 316.342C15.442 316.327 14.2676 315.127 14.2827 313.663C14.2979 312.198 15.4979 311.024 16.9622 311.039C18.4255 311.054 19.6009 312.254 19.5858 313.719Z" fill="#EDE8D0"/>
<path d="M19.5858 350.719C19.5706 352.183 18.3706 353.357 16.9063 353.342C15.442 353.327 14.2676 352.127 14.2827 350.663C14.2979 349.198 15.4979 348.024 16.9622 348.039C18.4255 348.054 19.6009 349.254 19.5858 350.719Z" fill="#EDE8D0"/>
<path d="M19.5858 387.719C19.5706 389.183 18.3706 390.357 16.9063 390.342C15.442 390.327 14.2676 389.127 14.2827 387.663C14.2979 386.198 15.4979 385.024 16.9622 385.039C18.4255 385.054 19.6009 386.254 19.5858 387.719Z" fill="#EDE8D0"/>
<path d="M19.5858 424.719C19.5706 426.183 18.3706 427.357 16.9063 427.342C15.442 427.327 14.2676 426.127 14.2827 424.663C14.2979 423.198 15.4979 422.024 16.9622 422.039C18.4255 422.054 19.6009 423.254 19.5858 424.719Z" fill="#EDE8D0"/>
<path d="M19.5858 461.719C19.5706 463.183 18.3706 464.357 16.9063 464.342C15.442 464.327 14.2676 463.127 14.2827 461.663C14.2979 460.198 15.4979 459.024 16.9622 459.039C18.4255 459.054 19.6009 460.254 19.5858 461.719Z" fill="#EDE8D0"/>
<path d="M19.5858 498.719C19.5706 500.183 18.3706 501.357 16.9063 501.342C15.442 501.327 14.2676 500.127 14.2827 498.663C14.2979 497.198 15.4979 496.024 16.9622 496.039C18.4255 496.054 19.6009 497.254 19.5858 498.719Z" fill="#EDE8D0"/>
<path d="M19.5858 535.719C19.5706 537.183 18.3706 538.357 16.9063 538.342C15.442 538.327 14.2676 537.127 14.2827 535.663C14.2979 534.198 15.4979 533.024 16.9622 533.039C18.4255 533.054 19.6009 534.254 19.5858 535.719Z" fill="#EDE8D0"/>
</svg>
