<svg width="24" height="24" viewBox="0 0 24 24" fill="none" xmlns="http://www.w3.org/2000/svg">
<path fill-rule="evenodd" clip-rule="evenodd" d="M4.98438 9.66003C5.19642 10.6811 5.92121 11.46 7.34476 11.199C6.57301 10.6889 6.68722 9.46233 4.98438 9.66003Z" fill="#27120C"/>
<path fill-rule="evenodd" clip-rule="evenodd" d="M4.31821 11.6862C3.12497 11.7566 2.04719 11.1864 1.91406 9.5332C2.70805 10.2346 4.0318 9.74199 4.31821 11.6862ZM4.31821 12.3131C3.12497 12.2427 2.04719 12.8129 1.91406 14.4661C2.70805 13.7648 4.0318 14.2566 4.31821 12.3131Z" fill="#27120C"/>
<path fill-rule="evenodd" clip-rule="evenodd" d="M4.98438 14.3398C5.19642 13.3188 5.92121 12.5399 7.34476 12.8008C6.57301 13.311 6.68722 14.5375 4.98438 14.3398Z" fill="#27120C"/>
<path fill-rule="evenodd" clip-rule="evenodd" d="M3.07277 12.0005C2.6657 12.3397 2.12681 12.5466 1.53639 12.5466C0.945311 12.5466 0.406421 12.3397 0 12.0005C0.406421 11.6619 0.945311 11.4551 1.53639 11.4551C2.12674 11.4551 2.66563 11.6619 3.07277 12.0005Z" fill="#27120C"/>
<path fill-rule="evenodd" clip-rule="evenodd" d="M2.79688 11.9498L9.683 11.7991C10.2271 11.7867 10.2271 12.2141 9.683 12.2016L2.79688 12.0509V11.9498Z" fill="#27120C"/>
<path fill-rule="evenodd" clip-rule="evenodd" d="M19.0166 9.66003C18.8052 10.6811 18.0797 11.46 16.6562 11.199C17.428 10.6889 17.3139 9.46233 19.0166 9.66003Z" fill="#27120C"/>
<path fill-rule="evenodd" clip-rule="evenodd" d="M19.6797 11.6862C20.8729 11.7566 21.9501 11.1864 22.0838 9.5332C21.2899 10.2346 19.9654 9.74199 19.6797 11.6862ZM19.6797 12.3131C20.8729 12.2427 21.9501 12.8129 22.0838 14.4661C21.2899 13.7648 19.9654 14.2566 19.6797 12.3131Z" fill="#27120C"/>
<path fill-rule="evenodd" clip-rule="evenodd" d="M19.0166 14.3398C18.8052 13.3188 18.0797 12.5399 16.6562 12.8008C17.428 13.311 17.3139 14.5375 19.0166 14.3398Z" fill="#27120C"/>
<path fill-rule="evenodd" clip-rule="evenodd" d="M20.9297 12.0005C21.3361 12.3397 21.875 12.5466 22.4661 12.5466C23.0565 12.5466 23.5954 12.3397 24.0018 12.0005C23.5954 11.6619 23.0565 11.4551 22.4661 11.4551C21.875 11.4551 21.3361 11.6619 20.9297 12.0005Z" fill="#27120C"/>
<path fill-rule="evenodd" clip-rule="evenodd" d="M21.2005 11.9498L14.3143 11.7991C13.7702 11.7867 13.7702 12.2141 14.3143 12.2016L21.2005 12.0509V11.9498Z" fill="#27120C"/>
<path fill-rule="evenodd" clip-rule="evenodd" d="M9.66198 19.0166C10.683 18.8052 11.462 18.0797 11.201 16.6562C10.6909 17.428 9.46429 17.3139 9.66198 19.0166Z" fill="#27120C"/>
<path fill-rule="evenodd" clip-rule="evenodd" d="M11.6842 19.6836C11.7547 20.8775 11.1845 21.9546 9.53125 22.0883C10.2326 21.2944 9.74069 19.97 11.6842 19.6836ZM12.3112 19.6842C12.2414 20.8775 12.8109 21.9546 14.4641 22.0883C13.7628 21.2944 14.2554 19.97 12.3112 19.6842Z" fill="#27120C"/>
<path fill-rule="evenodd" clip-rule="evenodd" d="M14.3398 19.0166C13.3188 18.8052 12.5399 18.0797 12.8008 16.6562C13.311 17.428 14.5375 17.3139 14.3398 19.0166Z" fill="#27120C"/>
<path fill-rule="evenodd" clip-rule="evenodd" d="M11.9985 20.9277C12.3371 21.3342 12.544 21.873 12.544 22.4641C12.544 23.0545 12.3371 23.5934 11.9985 23.9999C11.6593 23.5934 11.4531 23.0545 11.4531 22.4641C11.4531 21.873 11.6593 21.3342 11.9985 20.9277Z" fill="#27120C"/>
<path fill-rule="evenodd" clip-rule="evenodd" d="M11.9479 21.2024L11.7971 14.3163C11.7854 13.7722 12.212 13.7722 12.1996 14.3163L12.0489 21.2024H11.9479Z" fill="#27120C"/>
<path fill-rule="evenodd" clip-rule="evenodd" d="M9.66198 4.98438C10.683 5.19642 11.462 5.92121 11.201 7.34476C10.6909 6.57294 9.46429 6.68716 9.66198 4.98438Z" fill="#27120C"/>
<path fill-rule="evenodd" clip-rule="evenodd" d="M11.6842 4.31626C11.7547 3.12302 11.1845 2.04589 9.53125 1.91218C10.2326 2.70617 9.74069 4.03051 11.6842 4.31626ZM12.3112 4.31691C12.2414 3.12302 12.8109 2.04589 14.4641 1.91211C13.7628 2.70617 14.2554 4.03051 12.3112 4.31691Z" fill="#27120C"/>
<path fill-rule="evenodd" clip-rule="evenodd" d="M14.3398 4.98438C13.3188 5.19642 12.5399 5.92121 12.8008 7.34476C13.311 6.57294 14.5375 6.68716 14.3398 4.98438Z" fill="#27120C"/>
<path fill-rule="evenodd" clip-rule="evenodd" d="M11.9992 3.07278C12.3378 2.66571 12.5446 2.12681 12.5446 1.53639C12.5446 0.945311 12.3378 0.406421 11.9992 0C11.66 0.406421 11.4538 0.945311 11.4531 1.53639C11.4538 2.12674 11.66 2.66564 11.9992 3.07278Z" fill="#27120C"/>
<path fill-rule="evenodd" clip-rule="evenodd" d="M11.9479 2.79883L11.7971 9.68497C11.7854 10.2291 12.212 10.2291 12.1996 9.68497L12.0489 2.79883H11.9479Z" fill="#27120C"/>
<path fill-rule="evenodd" clip-rule="evenodd" d="M13.2323 11.9986C13.2323 11.3202 12.6817 10.7695 12.0032 10.7695C11.324 10.7695 10.7734 11.3202 10.7734 11.9986C10.7734 12.6778 11.3241 13.2284 12.0032 13.2284C12.6817 13.2285 13.2323 12.6778 13.2323 11.9986Z" fill="#27120C"/>
<path fill-rule="evenodd" clip-rule="evenodd" d="M8.35017 15.6495C8.38604 15.4199 8.45583 15.1922 8.5596 14.9736C8.68034 14.7192 8.84798 14.4784 9.06198 14.2651C9.27533 14.0517 9.51537 13.8841 9.76981 13.7634C9.98838 13.659 10.2161 13.5892 10.4457 13.5539C10.4104 13.7836 10.3407 14.0113 10.2369 14.2299C10.1156 14.4843 9.94788 14.7251 9.73453 14.9384C9.52117 15.1518 9.28042 15.3195 9.02598 15.4401C8.80754 15.5445 8.57983 15.6143 8.35017 15.6495ZM8.34625 14.8725C8.20928 15.1608 8.12639 15.4668 8.09834 15.7734L8.08594 15.9143L8.22618 15.9013C8.53281 15.8732 8.83878 15.7904 9.12714 15.6533C9.40572 15.5209 9.66865 15.3376 9.90157 15.1053C10.1345 14.8724 10.3171 14.6095 10.4496 14.3309C10.5866 14.0425 10.6701 13.7366 10.6975 13.4299L10.7106 13.2891L10.5697 13.3021C10.263 13.3295 9.95707 13.413 9.66871 13.55C9.39078 13.6825 9.1272 13.8658 8.89494 14.098C8.66202 14.331 8.47872 14.5939 8.34625 14.8725Z" fill="#27120C"/>
<path fill-rule="evenodd" clip-rule="evenodd" d="M15.6495 15.6494C15.4205 15.6142 15.1922 15.5444 14.9737 15.44C14.7199 15.3193 14.4785 15.1516 14.2652 14.9383C14.0518 14.7249 13.8848 14.4842 13.7634 14.2297C13.6597 14.0112 13.5899 13.7835 13.554 13.5538C13.7837 13.589 14.0114 13.6588 14.2299 13.7633C14.4844 13.884 14.7251 14.0516 14.9385 14.265C15.1518 14.4783 15.3195 14.7191 15.4402 14.9735C15.5445 15.1921 15.6143 15.4198 15.6495 15.6494ZM14.8725 15.6533C15.1609 15.7903 15.4668 15.8732 15.7734 15.9013L15.9143 15.9143L15.9013 15.7734C15.8739 15.4668 15.7911 15.1608 15.6534 14.8725C15.5209 14.5939 15.3383 14.331 15.1053 14.098C14.8724 13.8658 14.6095 13.6824 14.3309 13.55C14.0426 13.413 13.7366 13.3295 13.43 13.3021L13.2891 13.2891L13.3021 13.4299C13.3302 13.7366 13.413 14.0425 13.55 14.3309C13.6825 14.6095 13.8658 14.8724 14.0987 15.1047C14.3316 15.3376 14.5946 15.5209 14.8725 15.6533Z" fill="#27120C"/>
<path fill-rule="evenodd" clip-rule="evenodd" d="M13.5539 10.4465C13.5898 10.2168 13.6596 9.98909 13.7633 9.77059C13.8846 9.51614 14.0517 9.2754 14.265 9.06211C14.479 8.84876 14.7191 8.68112 14.9735 8.56039C15.1921 8.45603 15.4198 8.38617 15.6494 8.35095C15.6142 8.58061 15.5444 8.80831 15.4399 9.02682C15.3193 9.28127 15.1516 9.52136 14.9382 9.73537C14.7249 9.94872 14.4841 10.1163 14.2297 10.2371C14.0112 10.3414 13.7835 10.4112 13.5539 10.4465ZM13.55 9.66942C13.413 9.95778 13.3302 10.2638 13.3021 10.5704L13.2891 10.7113L13.43 10.6982C13.7366 10.6708 14.0426 10.5873 14.3309 10.4503C14.6095 10.3178 14.8724 10.1345 15.1053 9.90228C15.3383 9.66936 15.5209 9.40643 15.6534 9.12785C15.7911 8.83949 15.8739 8.53352 15.9013 8.22689L15.9143 8.08594L15.7734 8.09899C15.4668 8.12703 15.1609 8.20986 14.8725 8.3469C14.5946 8.47931 14.331 8.66267 14.0987 8.89559C13.8658 9.12792 13.6824 9.39149 13.55 9.66942Z" fill="#27120C"/>
<path fill-rule="evenodd" clip-rule="evenodd" d="M10.4457 10.4463C10.2167 10.4104 9.98845 10.3413 9.77053 10.2369C9.51543 10.1162 9.27468 9.94851 9.06198 9.73516C8.84798 9.52181 8.68034 9.28107 8.5596 9.02662C8.45589 8.80805 8.38604 8.58041 8.35017 8.35075C8.57983 8.38597 8.80747 8.45642 9.02604 8.56019C9.28049 8.68086 9.52124 8.84856 9.73459 9.06191C9.94794 9.27526 10.1156 9.51666 10.237 9.77039C10.3407 9.98896 10.4105 10.2167 10.4457 10.4463ZM9.66871 10.4502C9.95707 10.5872 10.263 10.6708 10.5697 10.6982L10.7106 10.7112L10.6975 10.5703C10.6701 10.2637 10.5866 9.95772 10.4496 9.66936C10.3171 9.39143 10.1345 9.12785 9.90157 8.89558C9.66865 8.66266 9.40572 8.47938 9.12714 8.3469C8.83878 8.20928 8.53281 8.12703 8.22618 8.09898L8.08594 8.08594L8.09834 8.22689C8.12639 8.53352 8.20921 8.83949 8.34625 9.12785C8.47872 9.40643 8.66202 9.66935 8.89494 9.90227C9.12786 10.1345 9.39078 10.3178 9.66871 10.4502Z" fill="#27120C"/>
</svg>
