<svg width="104" height="106" viewBox="0 0 104 106" fill="none" xmlns="http://www.w3.org/2000/svg">
<path d="M82.0993 8.53855C81.5523 8.09655 81.4573 7.15255 81.9903 6.56855C82.4893 5.99355 83.3943 5.79355 84.1293 6.13155C84.8703 6.47655 85.3423 7.22955 85.4093 8.04555C85.4943 8.85855 85.0863 9.72955 84.4353 10.2276C83.7953 10.7476 82.9273 10.9856 82.0913 10.8726C81.2563 10.7776 80.4473 10.2726 79.9553 9.62055C78.8853 8.32155 78.8403 6.29155 79.8733 4.90055C80.3903 4.20355 81.0343 3.71555 81.7983 3.35655C82.5643 3.03055 83.4243 2.88255 84.2653 2.99355C85.1083 3.08655 85.9173 3.42555 86.5883 3.92655C86.9293 4.16955 87.2233 4.46555 87.4973 4.79355C87.7483 5.11255 87.9763 5.43255 88.1613 5.75355C88.9273 7.04155 89.4353 8.35655 89.9363 9.67655C90.4233 11.0026 90.8513 12.3216 91.2364 13.6896L90.4223 12.9626C91.8353 13.2036 93.1653 13.5356 94.5143 13.9636C95.8473 14.4206 97.1954 14.9096 98.4394 15.8176C99.0664 16.2706 99.6463 16.8416 100.07 17.5306C100.499 18.2176 100.8 19.0486 100.798 19.9056C100.816 20.7616 100.555 21.5926 100.139 22.2826C99.7103 22.9646 99.2003 23.5496 98.4573 24.0036C97.0063 24.8766 95.0333 24.6826 93.8393 23.5426C93.2193 23.0026 92.8083 22.1746 92.7693 21.3516C92.7183 20.5266 93.0063 19.6915 93.5543 19.0975C94.0923 18.4815 94.9643 18.1535 95.7553 18.2715C96.5473 18.3855 97.2703 18.8756 97.5713 19.6216C97.8723 20.3556 97.6454 21.2325 97.0684 21.7066C96.4824 22.2126 95.5643 22.1055 95.1303 21.5705C95.6483 22.0345 96.4703 21.9555 96.8623 21.4875C97.2903 21.0375 97.3693 20.3386 97.0903 19.8376C96.8263 19.3376 96.2363 19.0275 95.6883 19.0196C95.1253 19.0096 94.6114 19.2775 94.3014 19.7235C93.6144 20.6095 93.8184 21.9495 94.6894 22.5525C95.5354 23.2345 96.7903 23.2696 97.6383 22.6806C98.0413 22.4106 98.4344 21.9296 98.6894 21.4515C98.9434 20.9685 99.0844 20.4555 99.0514 19.9525C99.0144 18.9595 98.3033 17.9755 97.3453 17.3545C95.3413 16.0545 92.6364 15.3705 90.1204 14.9375L89.4813 14.8275L89.3054 14.2095C88.5753 11.6405 87.7423 8.95755 86.5223 6.71355C86.2003 6.14955 85.9143 5.71055 85.4773 5.37955C85.0553 5.04055 84.5583 4.81155 84.0303 4.73455C82.9853 4.55255 81.8183 5.02055 81.1193 5.84655C80.4373 6.64655 80.3764 7.92955 81.0084 8.83455C81.5644 9.78055 82.9004 10.0816 83.8444 9.43655C84.3244 9.14255 84.6303 8.64755 84.6473 8.07255C84.6763 7.51755 84.3763 6.89955 83.8853 6.60755C83.3883 6.30555 82.6724 6.35755 82.2024 6.78355C81.7174 7.16955 81.6243 8.01155 82.0993 8.53855Z" fill="#550000"/>
<path d="M90.9769 3.06445C91.1629 4.59945 91.2749 6.08245 91.4649 7.50845C91.5749 8.21945 91.6779 8.91346 91.8739 9.54446C92.0529 10.1705 92.3049 10.7605 92.6139 11.0525C92.9059 11.3605 93.4969 11.6135 94.1229 11.7895C94.7539 11.9865 95.4479 12.0875 96.1589 12.1975C97.5849 12.3875 99.0669 12.5005 100.603 12.6885C99.1819 13.3235 97.6678 13.6585 96.1048 13.7575C95.3208 13.8295 94.5209 13.7605 93.6939 13.6335C92.8789 13.4735 91.9899 13.2205 91.2009 12.4655C90.4469 11.6765 90.1938 10.7875 90.0358 9.97245C89.9068 9.14545 89.8409 8.34545 89.9119 7.56145C90.0109 5.99945 90.3439 4.48545 90.9769 3.06445Z" fill="#550000"/>
<path d="M93.8477 9.81704C93.8477 9.81704 92.6817 3.15104 99.5907 4.07404C99.5907 4.07404 100.528 10.511 93.8477 9.81704Z" stroke="#550000" stroke-width="2" stroke-miterlimit="10"/>
<path d="M90.5274 13.6583C89.0304 15.7723 86.4074 17.1793 83.6604 17.1393C80.9014 17.0863 78.3414 15.8103 76.2344 14.2033C74.0424 12.6323 72.3444 10.5803 70.6474 8.56729C69.1234 6.59829 67.3134 4.88929 65.2154 3.68329C63.1384 2.45729 60.7464 1.81929 58.3614 1.91829C55.9814 2.01629 53.6204 2.86129 51.7284 4.35129C49.8544 5.84229 48.4494 8.00029 48.1244 10.4303C47.9474 11.6373 48.0324 12.8973 48.3734 14.1083C48.7204 15.3173 49.2894 16.4723 49.9824 17.5683C49.1224 16.6033 48.3674 15.5163 47.8494 14.2893C47.3284 13.0643 47.1004 11.7043 47.1464 10.3443C47.2594 7.60429 48.6574 4.97729 50.7224 3.15829C52.7724 1.29129 55.4954 0.255292 58.2544 0.0272917C61.0334 -0.154708 63.8344 0.583292 66.2114 1.95029C68.5754 3.35229 70.5714 5.27529 72.1504 7.42429C73.6924 9.41429 75.2834 11.4003 77.2004 12.9843C79.0834 14.5773 81.2704 15.8933 83.7094 16.1623C86.1314 16.4563 88.6924 15.4793 90.5274 13.6583Z" fill="#550000"/>
<path d="M76.0061 1.71838C74.3951 4.34838 72.2411 6.64938 69.7721 8.56738C67.2961 10.4704 64.3511 11.8894 61.1781 12.4024C59.5961 12.6584 57.9741 12.6924 56.3731 12.5194C54.7701 12.3424 53.2141 11.8994 51.7111 11.3514C50.2151 10.7794 48.7911 10.0494 47.4341 9.22338C46.1071 8.43038 44.8541 7.63938 43.5071 6.94738C38.1981 4.14638 32.3141 2.36738 26.3191 2.48538C23.3291 2.49938 20.3411 3.03038 17.4661 3.94738C14.5861 4.86238 11.8161 6.21338 9.32812 8.02738C13.7821 3.74038 19.9511 1.20638 26.2551 0.829382C32.5921 0.437382 38.9391 2.20838 44.4281 5.21638C45.8091 5.94838 47.1531 6.80338 48.4491 7.61538C49.6971 8.42138 51.0011 9.13238 52.3631 9.69538C53.7301 10.2424 55.1441 10.6584 56.5911 10.8964C58.0391 11.1164 59.5161 11.1514 60.9781 10.9814C63.9111 10.6564 66.7401 9.49838 69.2771 7.86438C71.8251 6.23138 74.0831 4.11538 76.0061 1.71838Z" fill="#550000"/>
<path d="M59.776 5.10838C54.795 5.52238 49.814 5.73838 44.832 5.88538C39.851 6.04538 34.87 6.08738 29.888 6.10738C24.907 6.09038 19.926 6.04737 14.944 5.88837C9.963 5.74237 4.982 5.52438 0 5.10838C4.981 4.69238 9.962 4.47437 14.944 4.32837C19.925 4.16937 24.906 4.12638 29.888 4.10938C34.869 4.12937 39.85 4.17238 44.832 4.33138C49.814 4.47738 54.795 4.69438 59.776 5.10838Z" fill="#550000"/>
<path d="M89.3798 15.0312C87.5588 16.8663 86.5818 19.4272 86.8748 21.8492C87.1438 24.2872 88.4588 26.4752 90.0528 28.3582C91.6368 30.2752 93.6228 31.8662 95.6128 33.4082C97.7618 34.9872 99.6848 36.9833 101.087 39.3473C102.454 41.7253 103.192 44.5262 103.01 47.3042C102.782 50.0632 101.746 52.7863 99.8788 54.8363C98.0598 56.9012 95.4327 58.2992 92.6927 58.4122C91.3327 58.4592 89.9727 58.2303 88.7477 57.7093C87.5207 57.1912 86.4337 56.4352 85.4688 55.5762C86.5638 56.2702 87.7187 56.8382 88.9287 57.1852C90.1397 57.5262 91.3998 57.6112 92.6068 57.4342C95.0368 57.1092 97.1948 55.7042 98.6858 53.8302C100.177 51.9382 101.021 49.5773 101.119 47.1973C101.218 44.8123 100.581 42.4202 99.3538 40.3432C98.1478 38.2452 96.4388 36.4362 94.4698 34.9112C92.4568 33.2142 90.4047 31.5152 88.8337 29.3242C87.2277 27.2162 85.9508 24.6562 85.8978 21.8982C85.8588 19.1502 87.2658 16.5282 89.3798 15.0312Z" fill="#550000"/>
<path d="M101.321 29.5508C98.9244 31.4738 96.8084 33.7318 95.1754 36.2788C93.5414 38.8158 92.3834 41.6448 92.0584 44.5778C91.8874 46.0398 91.9234 47.5158 92.1434 48.9648C92.3814 50.4118 92.7974 51.8268 93.3444 53.1928C93.9074 54.5558 94.6194 55.8588 95.4254 57.1068C96.2374 58.4018 97.0924 59.7468 97.8244 61.1278C100.832 66.6168 102.603 72.9648 102.211 79.3008C101.834 85.6048 99.3004 91.7748 95.0134 96.2278C96.8274 93.7398 98.1784 90.9698 99.0934 88.0898C100.01 85.2138 100.541 82.2268 100.555 79.2358C100.672 73.2398 98.8934 67.3568 96.0934 62.0478C95.4014 60.7018 94.6104 59.4478 93.8174 58.1208C92.9914 56.7638 92.2614 55.3408 91.6894 53.8438C91.1414 52.3408 90.6984 50.7858 90.5214 49.1818C90.3484 47.5808 90.3824 45.9588 90.6384 44.3768C91.1514 41.2048 92.5704 38.2598 94.4734 35.7828C96.3904 33.3158 98.6914 31.1628 101.321 29.5508Z" fill="#550000"/>
<path d="M97.9287 45.7852C98.3427 50.7662 98.5587 55.7472 98.7057 60.7292C98.8657 65.7102 98.9077 70.6912 98.9277 75.6732C98.9097 80.6542 98.8677 85.6352 98.7087 90.6172C98.5617 95.5982 98.3447 100.579 97.9287 105.561C97.5127 100.58 97.2947 95.5992 97.1487 90.6172C96.9897 85.6362 96.9467 80.6552 96.9297 75.6732C96.9497 70.6922 96.9927 65.7112 97.1517 60.7292C97.2987 55.7472 97.5147 50.7662 97.9287 45.7852Z" fill="#550000"/>
</svg>
