<svg width="305" height="13" viewBox="0 0 305 13" fill="none" xmlns="http://www.w3.org/2000/svg">
<path d="M149.655 12.924C149.573 12.924 149.491 12.9212 149.408 12.915C148.97 12.9228 145.05 12.852 142.37 8.01411C141.482 6.43626 140.282 4.95772 139.242 4.15876L139.085 4.031C137.75 2.94581 135.973 2.61552 134.33 3.14835C132.759 3.6583 131.618 4.85117 131.2 6.42121C131.167 6.54451 131.139 6.66892 131.114 6.79558C130.895 7.92652 131.177 9.08536 131.909 10.0595C132.951 11.4471 134.335 12.0614 135.709 11.7434C136.948 11.4566 137.905 10.4501 138.148 9.17965C138.272 8.533 138.107 7.84226 137.695 7.28321C137.076 6.44184 136.257 6.06524 135.449 6.24825C134.727 6.41172 134.17 6.99643 134.029 7.73793C133.883 8.50175 134.372 9.24325 135.12 9.39054L134.909 10.4579C133.577 10.1951 132.703 8.88338 132.96 7.53429C133.182 6.3682 134.064 5.44704 135.208 5.18704C136.44 4.9064 137.696 5.45039 138.571 6.63769C139.162 7.44 139.397 8.44094 139.216 9.38385C138.893 11.0772 137.612 12.4196 135.955 12.8035C134.169 13.2169 132.332 12.4352 131.039 10.7129C130.12 9.48985 129.768 8.02527 130.046 6.58858C130.075 6.43738 130.109 6.28785 130.149 6.14055C130.664 4.20674 132.065 2.73825 133.994 2.1128C135.989 1.46448 138.149 1.8662 139.772 3.18628L139.917 3.30457C141.071 4.19057 142.348 5.75613 143.32 7.48239C145.786 11.9336 149.361 11.8237 149.397 11.8259L149.431 11.8243L149.465 11.8271C150.079 11.875 150.678 11.6814 151.151 11.278C151.638 10.8629 151.934 10.2788 151.984 9.63381C152.061 8.65016 151.34 7.77977 150.379 7.69441C150.038 7.66038 149.676 7.80043 149.409 8.06098C149.011 8.45098 148.867 8.91183 149.016 9.32526C149.142 9.67453 149.457 9.91891 149.82 9.94848L149.732 11.0331C148.946 10.9701 148.263 10.445 147.993 9.69573C147.697 8.87557 147.942 7.97394 148.65 7.28321C149.14 6.8045 149.821 6.55065 150.475 6.61146C152.028 6.74983 153.191 8.14411 153.068 9.71916C152.995 10.6548 152.566 11.5029 151.857 12.1071C151.234 12.6388 150.461 12.924 149.655 12.924Z" fill="#B39B77"/>
<path d="M155.415 12.9251C154.609 12.9251 153.836 12.6406 153.212 12.1083C152.504 11.504 152.074 10.656 152.001 9.72031C151.878 8.14525 153.042 6.75098 154.594 6.61261C155.245 6.55347 155.929 6.80564 156.42 7.28435C157.127 7.97508 157.373 8.87671 157.077 9.69688C156.806 10.4467 156.123 10.9718 155.338 11.0348L155.25 9.95019C155.612 9.92118 155.927 9.6768 156.053 9.32697C156.202 8.91354 156.059 8.45269 155.659 8.06269C155.394 7.80269 155.032 7.66487 154.691 7.69612C153.729 7.78204 153.009 8.65187 153.086 9.63551C153.136 10.2805 153.432 10.8646 153.918 11.2798C154.391 11.6837 154.99 11.8784 155.604 11.8288L155.638 11.826L155.672 11.8276C155.817 11.8265 159.301 11.9035 161.748 7.48745C162.722 5.75784 163.998 4.19227 165.166 3.29623L165.298 3.18799C166.921 1.86791 169.081 1.46674 171.077 2.11451C173.005 2.73996 174.407 4.20845 174.922 6.14282C174.961 6.28956 174.995 6.43852 175.025 6.58972C175.303 8.02641 174.951 9.491 174.032 10.7146C172.738 12.4375 170.901 13.2191 169.116 12.8052C167.458 12.4213 166.178 11.0789 165.854 9.38556C165.674 8.44264 165.909 7.44169 166.5 6.63937C167.374 5.45153 168.633 4.9109 169.862 5.18875C171.006 5.44819 171.888 6.36935 172.111 7.53599C172.368 8.88509 171.494 10.1968 170.162 10.4596L169.951 9.39225C170.699 9.24495 171.187 8.50345 171.042 7.73964C170.901 6.99869 170.343 6.41397 169.621 6.24994C168.815 6.06693 167.995 6.44355 167.376 7.28492C166.964 7.84397 166.799 8.53525 166.922 9.18134C167.165 10.4518 168.122 11.4583 169.361 11.7451C170.734 12.0642 172.12 11.4499 173.162 10.0612C173.893 9.08706 174.176 7.92767 173.956 6.79784C173.932 6.67063 173.903 6.54565 173.871 6.42235C173.452 4.85231 172.312 3.65943 170.741 3.15003C169.097 2.61609 167.32 2.94695 165.985 4.03269L165.841 4.15042C164.788 4.95887 163.588 6.43741 162.698 8.0186C160.019 12.8554 156.113 12.9307 155.662 12.9167C155.579 12.9218 155.497 12.9251 155.415 12.9251Z" fill="#B39B77"/>
<path d="M152.534 6.86041C151.668 6.86041 150.972 6.27457 150.803 5.40252C150.414 3.39338 152.005 0.838034 152.073 0.730352L152.534 0L152.994 0.730352C153.062 0.838034 154.653 3.39282 154.263 5.40196C154.093 6.27457 153.399 6.86041 152.534 6.86041ZM151.872 5.19552C151.954 5.62067 152.267 5.77243 152.533 5.77243C152.799 5.77243 153.112 5.62067 153.194 5.19552C153.383 4.21969 152.921 2.98274 152.533 2.16982C152.146 2.98274 151.682 4.22025 151.872 5.19552Z" fill="#B39B77"/>
<path d="M300.353 8.25968C300.127 8.25968 299.905 8.24015 299.688 8.19663C298.828 8.02423 298.25 7.32179 298.25 6.44806C298.25 5.57433 298.828 4.87132 299.688 4.69892C301.673 4.29943 304.194 5.92248 304.3 5.99167L305 6.44749L304.3 6.90334C304.205 6.96527 302.195 8.25968 300.353 8.25968ZM299.902 5.7657C299.486 5.84884 299.339 6.17243 299.339 6.44806C299.339 6.72312 299.487 7.04671 299.902 7.12985C300.814 7.31118 302.033 6.86651 302.887 6.44749C302.034 6.02904 300.814 5.58326 299.902 5.7657Z" fill="#B39B77"/>
<path d="M296.217 6.99796C296.174 6.99796 296.13 6.99629 296.086 6.9935C296.083 6.9935 296.081 6.9935 296.078 6.9935C295.737 6.9935 293.727 6.88527 292.361 4.41919C291.938 3.66764 291.37 2.96575 290.881 2.59026L290.796 2.52164C290.206 2.04181 289.419 1.89675 288.693 2.1322C288.004 2.35593 287.503 2.87871 287.32 3.56665C287.306 3.62244 287.293 3.67768 287.282 3.73348C287.188 4.21833 287.31 4.71712 287.626 5.13781C288.075 5.73591 288.661 6.00316 289.232 5.87093C289.741 5.75321 290.135 5.33811 290.236 4.81365C290.282 4.5676 290.218 4.30257 290.059 4.08609C289.816 3.75523 289.519 3.60961 289.226 3.67712C288.974 3.73459 288.779 3.93992 288.729 4.20047C288.685 4.43258 288.831 4.65687 289.054 4.70095L288.844 5.76828C288.035 5.60927 287.505 4.81419 287.66 3.99682C287.791 3.31055 288.311 2.76881 288.985 2.61593C289.706 2.45246 290.434 2.761 290.935 3.44056C291.273 3.89975 291.408 4.47497 291.304 5.01729C291.123 5.96467 290.406 6.71564 289.477 6.93045C288.481 7.16088 287.465 6.73461 286.756 5.79058C286.26 5.12998 286.063 4.30536 286.213 3.52648C286.229 3.44502 286.247 3.36411 286.269 3.28489C286.545 2.24991 287.325 1.43142 288.358 1.09666C289.437 0.746831 290.606 0.963877 291.483 1.67748L291.556 1.73661C292.15 2.19245 292.811 3.00035 293.31 3.88803C294.08 5.27785 295.061 5.71081 295.626 5.84527C295.404 5.69519 295.229 5.47647 295.134 5.21368C294.95 4.70261 295.096 4.1469 295.527 3.72733C295.826 3.43441 296.245 3.27987 296.648 3.31669C297.568 3.39927 298.257 4.22334 298.185 5.15398C298.143 5.69072 297.896 6.17836 297.488 6.52596C297.13 6.83394 296.683 6.99796 296.217 6.99796ZM296.531 4.40076C296.448 4.40076 296.355 4.44094 296.288 4.50677C296.168 4.62394 296.122 4.74389 296.158 4.84544C296.178 4.90067 296.233 4.96764 296.321 4.97489L296.246 5.90999C296.442 5.90274 296.63 5.8302 296.782 5.69964C296.968 5.54119 297.081 5.31802 297.1 5.07086C297.127 4.73163 296.881 4.43146 296.552 4.40189C296.545 4.40077 296.538 4.40076 296.531 4.40076Z" fill="#B39B77"/>
<path d="M289.391 11.9719C289.046 11.9719 288.697 11.9177 288.357 11.8073C287.325 11.4725 286.544 10.654 286.269 9.61792C286.247 9.53925 286.229 9.45835 286.213 9.37634C286.063 8.59913 286.26 7.77393 286.756 7.11389C287.466 6.16986 288.482 5.74359 289.477 5.97402C290.406 6.18883 291.123 6.93982 291.304 7.8872C291.408 8.43007 291.273 9.00475 290.935 9.46449C290.434 10.1441 289.705 10.4531 288.985 10.2891C288.311 10.1362 287.791 9.59448 287.66 8.90822C287.504 8.09084 288.035 7.29634 288.843 7.13677L289.054 8.2041C288.831 8.24818 288.685 8.47303 288.729 8.70458C288.778 8.96569 288.974 9.17101 289.225 9.22791C289.52 9.29487 289.815 9.14924 290.058 8.81895C290.218 8.60247 290.282 8.33745 290.235 8.0914C290.135 7.56694 289.741 7.15184 289.231 7.03356C288.66 6.90188 288.075 7.16914 287.626 7.76724C287.309 8.18793 287.187 8.68616 287.281 9.17045C287.293 9.22792 287.305 9.28316 287.319 9.33728C287.503 10.0263 288.003 10.5491 288.692 10.7734C289.418 11.0089 290.206 10.8632 290.796 10.3834L290.867 10.3254C291.369 9.93985 291.937 9.23796 292.361 8.48307C293.735 6.0036 295.758 5.93107 296.084 5.9121C296.596 5.87583 297.094 6.04321 297.487 6.37909C297.894 6.72613 298.142 7.21376 298.183 7.75105C298.256 8.68169 297.567 9.50578 296.647 9.5878C296.244 9.62518 295.826 9.47006 295.526 9.1777C295.096 8.75758 294.949 8.20186 295.134 7.69079C295.229 7.42801 295.405 7.20874 295.627 7.05865C295.065 7.192 294.082 7.6233 293.312 9.01312C292.81 9.90415 292.149 10.712 291.542 11.1779L291.483 11.2264C290.882 11.7158 290.144 11.9719 289.391 11.9719ZM296.246 6.99562L296.321 7.93072C296.232 7.93797 296.178 8.00492 296.158 8.06016C296.121 8.1617 296.167 8.28221 296.287 8.39882C296.36 8.47024 296.466 8.51152 296.552 8.50371C296.881 8.4747 297.127 8.17453 297.1 7.8353C297.081 7.58813 296.968 7.36441 296.783 7.20595C296.629 7.0754 296.442 7.00231 296.246 6.99562Z" fill="#B39B77"/>
<path d="M288.787 5.90625H174.508V6.99424H288.787V5.90625Z" fill="#B39B77"/>
<path d="M4.64762 8.2601C2.80587 8.2601 0.795064 6.96567 0.700214 6.9043L0 6.44847L0.700214 5.99263C0.806222 5.92344 3.32252 4.30041 5.31212 4.69989C6.17246 4.8723 6.74993 5.5753 6.74993 6.44903C6.74993 7.32276 6.1719 8.02521 5.31212 8.19761C5.09564 8.24057 4.87303 8.2601 4.64762 8.2601ZM2.1118 6.44791C2.96544 6.86692 4.18732 7.31215 5.09843 7.13082C5.5141 7.04769 5.66196 6.7241 5.66196 6.44903C5.66196 6.17341 5.51354 5.85035 5.09843 5.76666C4.18286 5.58366 2.96432 6.0289 2.1118 6.44791Z" fill="#B39B77"/>
<path d="M8.77777 6.99791C8.31245 6.99791 7.86666 6.83332 7.50679 6.52702C7.09949 6.17942 6.85177 5.69235 6.80993 5.1545C6.7374 4.22441 7.42644 3.39979 8.34592 3.31777C8.74987 3.28652 9.16777 3.43605 9.46794 3.72841C9.89811 4.14853 10.0448 4.70424 9.86017 5.21475C9.76532 5.47754 9.58957 5.69681 9.36695 5.84689C9.92991 5.71355 10.9119 5.28227 11.6818 3.89244C12.1834 3.00142 12.844 2.19296 13.4511 1.72764L13.5102 1.6791C14.3884 0.964382 15.5562 0.747907 16.6363 1.09773C17.6679 1.4325 18.4496 2.25098 18.7252 3.28707C18.7464 3.3663 18.7643 3.44553 18.7805 3.52643C18.9317 4.30643 18.7336 5.13162 18.2382 5.79166C17.529 6.73625 16.5125 7.16195 15.5165 6.93153C14.5881 6.71616 13.8712 5.96574 13.6904 5.01836C13.5866 4.47549 13.7211 3.90081 14.0592 3.44162C14.5602 2.76205 15.29 2.45408 16.0098 2.61699C16.6837 2.76987 17.2037 3.31219 17.3343 3.99789C17.49 4.81527 16.9594 5.61032 16.1504 5.76934L15.9406 4.70201C16.1637 4.65793 16.3099 4.43364 16.2653 4.20153C16.2156 3.94042 16.0209 3.7351 15.7687 3.67763C15.4736 3.61012 15.179 3.75574 14.9352 4.0866C14.7762 4.30252 14.712 4.56809 14.7589 4.81414C14.8593 5.33861 15.2526 5.75372 15.7626 5.87145C16.3334 6.00256 16.9186 5.73699 17.3683 5.13832C17.6847 4.71763 17.8069 4.21883 17.7126 3.7351C17.7014 3.6793 17.6886 3.62239 17.6741 3.5666C17.4911 2.87922 16.9901 2.35699 16.301 2.13326C15.574 1.89725 14.7879 2.04288 14.1976 2.52326L14.1262 2.58129C13.6246 2.96682 13.0566 3.66871 12.632 4.4236C11.2584 6.90363 9.25146 7.00518 8.90945 6.99458C8.86537 6.99681 8.82185 6.99791 8.77777 6.99791ZM8.46477 4.40071C8.45752 4.40071 8.45026 4.40072 8.44301 4.40128C8.11439 4.43085 7.86889 4.73046 7.89511 5.06968C7.91408 5.31685 8.02735 5.54058 8.21314 5.69903C8.36657 5.82959 8.55348 5.90213 8.74987 5.90938L8.67455 4.97428C8.76326 4.96703 8.81795 4.90008 8.83747 4.84484C8.8743 4.7433 8.82855 4.62335 8.70859 4.50618C8.64052 4.4409 8.54735 4.40071 8.46477 4.40071Z" fill="#B39B77"/>
<path d="M15.6103 11.973C14.8582 11.973 14.12 11.7169 13.5186 11.2276L13.446 11.1685C12.8518 10.7126 12.1912 9.90474 11.6913 9.01707C10.9214 7.62724 9.94108 7.19485 9.37589 7.06039C9.59795 7.20991 9.77314 7.42863 9.86799 7.69086C10.0527 8.20193 9.90592 8.75764 9.47631 9.17777C9.17558 9.47068 8.75435 9.62411 8.35431 9.5884C7.43427 9.50639 6.74521 8.68231 6.81774 7.75112C6.85958 7.21382 7.10731 6.72618 7.51461 6.37914C7.90795 6.04382 8.40396 5.87811 8.91726 5.9127C8.91949 5.9127 8.92172 5.9127 8.92451 5.9127C9.26541 5.9127 11.2757 6.02095 12.6421 8.48704C13.0655 9.23858 13.6329 9.94045 14.1217 10.3159L14.2065 10.3846C14.7963 10.8633 15.5818 11.0106 16.3094 10.774C16.999 10.5503 17.4995 10.0275 17.6825 9.33901C17.697 9.28433 17.7098 9.22798 17.721 9.17051C17.8147 8.68734 17.6925 8.1891 17.3762 7.76841C16.927 7.17031 16.3423 6.90082 15.7698 7.03529C15.261 7.15301 14.8671 7.56811 14.7667 8.09257C14.7198 8.33862 14.784 8.60419 14.943 8.82012C15.1868 9.15041 15.4808 9.29604 15.7765 9.22909C16.0287 9.17162 16.2235 8.9663 16.2731 8.70575C16.3172 8.47364 16.1716 8.24935 15.9478 8.20527L16.1587 7.13794C16.9672 7.29751 17.4978 8.09257 17.3421 8.90995C17.2116 9.59566 16.6921 10.1374 16.0181 10.2908C15.2984 10.4549 14.5686 10.1463 14.0676 9.46622C13.7295 9.00704 13.595 8.43236 13.6988 7.88893C13.8796 6.94211 14.5965 6.19112 15.5249 5.97575C16.5197 5.74644 17.5374 6.17159 18.2465 7.11562C18.7425 7.77566 18.9401 8.60085 18.7894 9.37918C18.7732 9.46119 18.7548 9.54042 18.7342 9.61909C18.458 10.6563 17.6769 11.4748 16.6447 11.8095C16.3044 11.9195 15.9562 11.973 15.6103 11.973ZM8.75713 6.99679C8.56129 7.00348 8.37383 7.07657 8.2204 7.20712C8.03461 7.36614 7.9219 7.58931 7.90237 7.83647C7.87559 8.17626 8.12165 8.47643 8.45027 8.50544C8.53508 8.51493 8.6422 8.47197 8.71585 8.39999C8.83525 8.28339 8.881 8.16287 8.84417 8.06133C8.82409 8.00609 8.76941 7.93914 8.68126 7.93189L8.75713 6.99679Z" fill="#B39B77"/>
<path d="M130.498 5.90723H16.2188V6.99521H130.498V5.90723Z" fill="#B39B77"/>
</svg>
