<svg width="260" height="19" viewBox="0 0 260 19" fill="none" xmlns="http://www.w3.org/2000/svg">
<path d="M267.759 0.570766C269.683 0.570766 271.607 1.30347 273.073 2.76835L279.516 9.2113L273.073 15.6543C270.143 18.584 265.375 18.584 262.445 15.6542L256.002 9.2113L262.445 2.76835C263.91 1.30293 265.835 0.570765 267.759 0.570766ZM277.367 9.21076L271.999 3.84245C269.66 1.50483 265.857 1.50538 263.52 3.84244L258.151 9.21075L263.52 14.5796C265.857 16.9167 269.661 16.9167 271.999 14.5796L277.367 9.21076Z" fill="#EDE8D0" fill-opacity="0.45"/>
<path d="M246.556 0.570766C248.48 0.570766 250.404 1.30347 251.87 2.76835L258.313 9.2113L251.87 15.6543C248.94 18.584 244.172 18.584 241.242 15.6542L234.799 9.2113L241.242 2.76835C242.707 1.30293 244.631 0.570765 246.556 0.570766ZM256.164 9.21076L250.795 3.84245C248.457 1.50483 244.654 1.50538 242.317 3.84244L236.948 9.21075L242.317 14.5796C244.654 16.9167 248.458 16.9167 250.795 14.5796L256.164 9.21076Z" fill="#EDE8D0" fill-opacity="0.45"/>
<path d="M225.352 0.570766C227.277 0.570766 229.201 1.30347 230.666 2.76835L237.109 9.2113L230.666 15.6543C227.737 18.584 222.969 18.584 220.039 15.6542L213.596 9.2113L220.039 2.76835C221.504 1.30293 223.428 0.570765 225.352 0.570766ZM234.961 9.21076L229.592 3.84245C227.254 1.50483 223.451 1.50538 221.114 3.84244L215.745 9.21075L221.114 14.5796C223.451 16.9167 227.255 16.9167 229.592 14.5796L234.961 9.21076Z" fill="#EDE8D0" fill-opacity="0.45"/>
<path d="M204.149 0.570766C206.074 0.570766 207.998 1.30347 209.463 2.76835L215.906 9.2113L209.463 15.6543C206.534 18.584 201.766 18.584 198.836 15.6542L192.393 9.2113L198.836 2.76835C200.301 1.30293 202.225 0.570765 204.149 0.570766ZM213.758 9.21076L208.389 3.84245C206.051 1.50483 202.247 1.50538 199.91 3.84244L194.542 9.21075L199.91 14.5796C202.248 16.9167 206.052 16.9167 208.389 14.5796L213.758 9.21076Z" fill="#EDE8D0" fill-opacity="0.45"/>
<path d="M182.954 0.570766C184.879 0.570766 186.803 1.30347 188.268 2.76835L194.711 9.2113L188.268 15.6543C185.338 18.584 180.57 18.584 177.64 15.6542L171.198 9.2113L177.64 2.76835C179.105 1.30293 181.03 0.570765 182.954 0.570766ZM192.562 9.21076L187.194 3.84245C184.856 1.50483 181.052 1.50538 178.715 3.84244L173.347 9.21075L178.715 14.5796C181.053 16.9167 184.856 16.9167 187.194 14.5796L192.562 9.21076Z" fill="#EDE8D0" fill-opacity="0.45"/>
<path d="M161.751 0.570766C163.675 0.570766 165.599 1.30347 167.065 2.76835L173.508 9.2113L167.065 15.6543C164.135 18.584 159.367 18.584 156.437 15.6542L149.994 9.2113L156.437 2.76835C157.902 1.30293 159.827 0.570765 161.751 0.570766ZM171.359 9.21076L165.991 3.84245C163.653 1.50483 159.849 1.50538 157.512 3.84244L152.144 9.21075L157.512 14.5796C159.85 16.9167 163.653 16.9167 165.991 14.5796L171.359 9.21076Z" fill="#EDE8D0" fill-opacity="0.45"/>
<path d="M140.548 0.570766C142.472 0.570766 144.396 1.30347 145.862 2.76835L152.305 9.2113L145.862 15.6543C142.932 18.584 138.164 18.584 135.234 15.6542L128.791 9.2113L135.234 2.76835C136.699 1.30293 138.624 0.570765 140.548 0.570766ZM150.156 9.21076L144.788 3.84245C142.45 1.50483 138.646 1.50538 136.309 3.84244L130.941 9.21075L136.309 14.5796C138.646 16.9167 142.45 16.9167 144.788 14.5796L150.156 9.21076Z" fill="#EDE8D0" fill-opacity="0.45"/>
<path d="M119.345 0.570766C121.269 0.570766 123.193 1.30347 124.659 2.76835L131.102 9.2113L124.659 15.6543C121.729 18.584 116.961 18.584 114.031 15.6542L107.588 9.2113L114.031 2.76835C115.496 1.30293 117.421 0.570765 119.345 0.570766ZM128.953 9.21076L123.585 3.84245C121.246 1.50483 117.443 1.50538 115.106 3.84244L109.737 9.21075L115.106 14.5796C117.443 16.9167 121.247 16.9167 123.585 14.5796L128.953 9.21076Z" fill="#EDE8D0" fill-opacity="0.45"/>
<path d="M98.1415 0.570766C100.066 0.570766 101.99 1.30347 103.455 2.76835L109.898 9.2113L103.455 15.6543C100.526 18.584 95.7577 18.584 92.828 15.6542L86.385 9.2113L92.828 2.76835C94.2928 1.30293 96.2174 0.570765 98.1415 0.570766ZM107.75 9.21076L102.381 3.84245C100.043 1.50483 96.2397 1.50538 93.9026 3.84244L88.5343 9.21075L93.9026 14.5796C96.2402 16.9167 100.044 16.9167 102.381 14.5796L107.75 9.21076Z" fill="#EDE8D0" fill-opacity="0.45"/>
<path d="M76.9383 0.570766C78.8629 0.570766 80.7869 1.30347 82.2524 2.76835L88.6953 9.2113L82.2524 15.6543C79.3226 18.584 74.5546 18.584 71.6248 15.6542L65.1819 9.2113L71.6248 2.76835C73.0897 1.30293 75.0143 0.570765 76.9383 0.570766ZM86.5466 9.21076L81.1783 3.84245C78.8401 1.50483 75.0366 1.50538 72.6995 3.84244L67.3312 9.21075L72.6995 14.5796C75.0371 16.9167 78.8407 16.9167 81.1783 14.5796L86.5466 9.21076Z" fill="#EDE8D0" fill-opacity="0.45"/>
<path d="M55.7352 0.570766C57.6598 0.570766 59.5838 1.30347 61.0492 2.76835L67.4922 9.2113L61.0492 15.6543C58.1195 18.584 53.3515 18.584 50.4217 15.6542L43.9788 9.2113L50.4217 2.76835C51.8866 1.30293 53.8112 0.570765 55.7352 0.570766ZM65.3435 9.21076L59.9752 3.84245C57.637 1.50483 53.8334 1.50538 51.4964 3.84244L46.1281 9.21075L51.4964 14.5796C53.834 16.9167 57.6375 16.9167 59.9752 14.5796L65.3435 9.21076Z" fill="#EDE8D0" fill-opacity="0.45"/>
<path d="M34.5321 0.570766C36.4567 0.570766 38.3807 1.30347 39.8461 2.76835L46.2891 9.2113L39.8461 15.6543C36.9164 18.584 32.1483 18.584 29.2186 15.6542L22.7756 9.2113L29.2186 2.76835C30.6835 1.30293 32.608 0.570765 34.5321 0.570766ZM44.1403 9.21076L38.772 3.84245C36.4339 1.50483 32.6303 1.50538 30.2932 3.84244L24.9249 9.21075L30.2932 14.5796C32.6308 16.9167 36.4344 16.9167 38.772 14.5796L44.1403 9.21076Z" fill="#EDE8D0" fill-opacity="0.45"/>
<path d="M13.329 0.570766C15.2535 0.570766 17.1776 1.30347 18.643 2.76835L25.0859 9.2113L18.643 15.6543C15.7132 18.584 10.9452 18.584 8.01546 15.6542L1.57252 9.2113L8.01547 2.76835C9.48034 1.30293 11.4049 0.570765 13.329 0.570766ZM22.9372 9.21076L17.5689 3.84245C15.2308 1.50483 11.4272 1.50538 9.09011 3.84244L3.7218 9.21075L9.09011 14.5796C11.4277 16.9167 15.2313 16.9167 17.5689 14.5796L22.9372 9.21076Z" fill="#EDE8D0" fill-opacity="0.45"/>
<path d="M-7.87416 0.570766C-5.94958 0.570766 -4.02555 1.30347 -2.56014 2.76835L3.88281 9.2113L-2.56014 15.6543C-5.48988 18.584 -10.2579 18.584 -13.1877 15.6542L-19.6306 9.2113L-13.1877 2.76835C-11.7228 1.30293 -9.7982 0.570765 -7.87416 0.570766ZM1.73409 9.21076L-3.63422 3.84245C-5.97237 1.50483 -9.77595 1.50538 -12.113 3.84244L-17.4813 9.21075L-12.113 14.5796C-9.7754 16.9167 -5.97183 16.9167 -3.63422 14.5796L1.73409 9.21076Z" fill="#EDE8D0" fill-opacity="0.45"/>
<path d="M246.441 11.2265C245.602 11.2178 244.929 10.5301 244.938 9.69105C244.946 8.85196 245.634 8.17895 246.473 8.18764C247.312 8.19632 247.985 8.88398 247.976 9.72307C247.968 10.5616 247.28 11.2352 246.441 11.2265Z" fill="#EDE8D0" fill-opacity="0.45"/>
<path d="M225.238 11.2265C224.399 11.2178 223.726 10.5301 223.735 9.69105C223.743 8.85196 224.431 8.17895 225.27 8.18764C226.109 8.19632 226.782 8.88398 226.773 9.72307C226.765 10.5616 226.077 11.2352 225.238 11.2265Z" fill="#EDE8D0" fill-opacity="0.45"/>
<path d="M204.035 11.2265C203.196 11.2178 202.523 10.5301 202.531 9.69105C202.54 8.85196 203.228 8.17895 204.067 8.18764C204.906 8.19632 205.579 8.88398 205.57 9.72307C205.562 10.5616 204.874 11.2352 204.035 11.2265Z" fill="#EDE8D0" fill-opacity="0.45"/>
<path d="M182.832 11.2265C181.993 11.2178 181.32 10.5301 181.328 9.69105C181.337 8.85196 182.025 8.17895 182.864 8.18764C183.703 8.19632 184.376 8.88398 184.367 9.72307C184.358 10.5616 183.671 11.2352 182.832 11.2265Z" fill="#EDE8D0" fill-opacity="0.45"/>
<path d="M161.629 11.2265C160.789 11.2178 160.116 10.5301 160.125 9.69105C160.134 8.85196 160.821 8.17895 161.661 8.18764C162.5 8.19632 163.173 8.88398 163.164 9.72307C163.155 10.5616 162.468 11.2352 161.629 11.2265Z" fill="#EDE8D0" fill-opacity="0.45"/>
<path d="M140.433 11.2265C139.594 11.2178 138.921 10.5301 138.93 9.69105C138.939 8.85196 139.626 8.17895 140.465 8.18764C141.304 8.19632 141.977 8.88398 141.969 9.72307C141.96 10.5616 141.272 11.2352 140.433 11.2265Z" fill="#EDE8D0" fill-opacity="0.45"/>
<path d="M119.23 11.2265C118.391 11.2178 117.718 10.5301 117.727 9.69105C117.735 8.85196 118.423 8.17895 119.262 8.18764C120.101 8.19632 120.774 8.88398 120.766 9.72307C120.757 10.5616 120.069 11.2352 119.23 11.2265Z" fill="#EDE8D0" fill-opacity="0.45"/>
<path d="M98.027 11.2265C97.1879 11.2178 96.5149 10.5301 96.5236 9.69105C96.5323 8.85196 97.2199 8.17895 98.059 8.18764C98.8981 8.19632 99.5711 8.88398 99.5624 9.72307C99.5537 10.5616 98.8661 11.2352 98.027 11.2265Z" fill="#EDE8D0" fill-opacity="0.45"/>
<path d="M76.8239 11.2265C75.9848 11.2178 75.3118 10.5301 75.3205 9.69105C75.3291 8.85196 76.0168 8.17895 76.8559 8.18764C77.695 8.19632 78.368 8.88398 78.3593 9.72307C78.3506 10.5616 77.6629 11.2352 76.8239 11.2265Z" fill="#EDE8D0" fill-opacity="0.45"/>
<path d="M55.6207 11.2265C54.7816 11.2178 54.1086 10.5301 54.1173 9.69105C54.126 8.85196 54.8137 8.17895 55.6528 8.18764C56.4919 8.19632 57.1649 8.88398 57.1562 9.72307C57.1475 10.5616 56.4598 11.2352 55.6207 11.2265Z" fill="#EDE8D0" fill-opacity="0.45"/>
<path d="M34.4176 11.2265C33.5785 11.2178 32.9055 10.5301 32.9142 9.69105C32.9229 8.85196 33.6106 8.17895 34.4496 8.18764C35.2887 8.19632 35.9617 8.88398 35.953 9.72307C35.9444 10.5616 35.2567 11.2352 34.4176 11.2265Z" fill="#EDE8D0" fill-opacity="0.45"/>
<path d="M13.2145 11.2265C12.3754 11.2178 11.7024 10.5301 11.7111 9.69105C11.7198 8.85196 12.4074 8.17895 13.2465 8.18764C14.0856 8.19632 14.7586 8.88398 14.7499 9.72307C14.7412 10.5616 14.0536 11.2352 13.2145 11.2265Z" fill="#EDE8D0" fill-opacity="0.45"/>
</svg>
