<svg width="134" height="6" viewBox="0 0 134 6" fill="none" xmlns="http://www.w3.org/2000/svg">
<path d="M131.611 3.761C131.495 3.761 131.381 3.75097 131.27 3.72863C130.828 3.64011 130.531 3.27946 130.531 2.83087C130.531 2.38228 130.828 2.02134 131.27 1.93283C132.289 1.72772 133.583 2.56103 133.638 2.59655L133.997 2.83058L133.638 3.06462C133.589 3.09642 132.557 3.761 131.611 3.761ZM131.379 2.48054C131.166 2.52322 131.09 2.68936 131.09 2.83087C131.09 2.9721 131.166 3.13824 131.379 3.18092C131.848 3.27402 132.474 3.04571 132.912 2.83058C132.474 2.61574 131.848 2.38687 131.379 2.48054Z" fill="#EDE8D0"/>
<path d="M129.49 3.11408C129.467 3.11408 129.445 3.11322 129.422 3.11179C129.421 3.11179 129.42 3.11179 129.418 3.11179C129.243 3.11179 128.211 3.05622 127.51 1.79008C127.293 1.40422 127.001 1.04385 126.75 0.851068L126.706 0.815838C126.403 0.569485 125.999 0.495007 125.627 0.615892C125.273 0.730761 125.016 0.999167 124.922 1.35237C124.914 1.38101 124.908 1.40938 124.902 1.43802C124.854 1.68695 124.917 1.94305 125.079 2.15903C125.309 2.46612 125.61 2.60333 125.903 2.53544C126.165 2.475 126.367 2.26187 126.419 1.9926C126.443 1.86628 126.41 1.73021 126.328 1.61906C126.203 1.44919 126.051 1.37443 125.9 1.40909C125.771 1.43859 125.671 1.54401 125.645 1.67779C125.623 1.79695 125.697 1.91211 125.812 1.93474L125.704 2.48273C125.289 2.40109 125.016 1.99289 125.096 1.57323C125.163 1.22088 125.43 0.942741 125.776 0.864251C126.147 0.780319 126.521 0.938729 126.777 1.28763C126.951 1.52339 127.02 1.81872 126.967 2.09716C126.874 2.58356 126.506 2.96913 126.029 3.07942C125.518 3.19772 124.996 2.97887 124.632 2.49418C124.378 2.15502 124.276 1.73164 124.353 1.33175C124.362 1.28992 124.371 1.24838 124.382 1.20771C124.524 0.676328 124.924 0.256096 125.454 0.0842219C126.009 -0.0953868 126.608 0.0160495 127.059 0.382428L127.096 0.412789C127.401 0.646825 127.741 1.06162 127.997 1.51737C128.393 2.23094 128.896 2.45323 129.186 2.52226C129.072 2.44521 128.982 2.33291 128.934 2.19799C128.839 1.93559 128.914 1.65028 129.135 1.43487C129.289 1.28448 129.504 1.20513 129.711 1.22404C130.183 1.26643 130.537 1.68953 130.5 2.16734C130.478 2.44291 130.351 2.69328 130.142 2.87174C129.958 3.02987 129.729 3.11408 129.49 3.11408ZM129.651 1.78062C129.608 1.78062 129.56 1.80125 129.526 1.83505C129.464 1.8952 129.441 1.95679 129.459 2.00893C129.47 2.03729 129.498 2.07167 129.543 2.07539L129.504 2.55549C129.605 2.55177 129.701 2.51452 129.78 2.44749C129.875 2.36614 129.933 2.25156 129.943 2.12466C129.957 1.9505 129.83 1.79638 129.662 1.7812C129.658 1.78062 129.654 1.78062 129.651 1.78062Z" fill="#EDE8D0"/>
<path d="M125.985 5.66449C125.808 5.66449 125.629 5.63671 125.454 5.57999C124.924 5.40812 124.523 4.98788 124.382 4.45593C124.371 4.41554 124.362 4.37401 124.353 4.3319C124.276 3.93286 124.378 3.50919 124.632 3.17031C124.997 2.68562 125.518 2.46677 126.029 2.58508C126.506 2.69536 126.874 3.08094 126.967 3.56734C127.02 3.84606 126.951 4.14111 126.777 4.37716C126.521 4.72606 126.146 4.88476 125.776 4.80054C125.43 4.72205 125.163 4.4439 125.096 4.09155C125.016 3.6719 125.289 3.26398 125.704 3.18206L125.812 3.73005C125.697 3.75268 125.622 3.86812 125.645 3.987C125.67 4.12106 125.771 4.22648 125.9 4.25569C126.051 4.29007 126.203 4.2153 126.327 4.04572C126.409 3.93458 126.442 3.79851 126.418 3.67218C126.367 3.40291 126.164 3.18979 125.903 3.12906C125.61 3.06146 125.309 3.19867 125.079 3.50575C124.916 3.72174 124.853 3.97755 124.902 4.22619C124.907 4.2557 124.914 4.28406 124.921 4.31184C125.016 4.66562 125.272 4.93403 125.626 5.04919C125.999 5.17007 126.403 5.0953 126.706 4.84895L126.743 4.81916C127 4.62122 127.292 4.26085 127.51 3.87328C128.215 2.60026 129.254 2.56302 129.421 2.55328C129.684 2.53466 129.94 2.6206 130.142 2.79305C130.351 2.97122 130.478 3.22158 130.499 3.49744C130.536 3.97525 130.183 4.39836 129.711 4.44046C129.503 4.45966 129.289 4.38002 129.135 4.22991C128.914 4.01421 128.839 3.7289 128.933 3.4665C128.982 3.33158 129.073 3.21901 129.187 3.14195C128.898 3.21041 128.393 3.43185 127.998 4.14541C127.74 4.60289 127.401 5.01767 127.089 5.25686L127.059 5.28178C126.751 5.53301 126.372 5.66449 125.985 5.66449ZM129.504 3.10959L129.543 3.58969C129.497 3.59341 129.47 3.62778 129.459 3.65614C129.44 3.70828 129.464 3.77015 129.525 3.83002C129.563 3.86669 129.617 3.88788 129.662 3.88387C129.83 3.86898 129.957 3.71486 129.943 3.5407C129.933 3.4138 129.875 3.29893 129.78 3.21758C129.701 3.15054 129.605 3.11302 129.504 3.10959Z" fill="#EDE8D0"/>
<path d="M125.674 2.55469H67V3.11328H125.674V2.55469Z" fill="#EDE8D0"/>
<path d="M2.38619 3.76071C1.44059 3.76071 0.408203 3.09613 0.359505 3.06462L0 2.83058L0.359505 2.59654C0.413932 2.56102 1.70585 1.72772 2.72736 1.93283C3.16908 2.02134 3.46556 2.38228 3.46556 2.83087C3.46556 3.27946 3.16879 3.64011 2.72736 3.72863C2.61621 3.75069 2.50192 3.76071 2.38619 3.76071ZM1.08424 2.83029C1.52252 3.04542 2.14986 3.27402 2.61765 3.18092C2.83106 3.13824 2.90697 2.9721 2.90697 2.83087C2.90697 2.68936 2.83077 2.5235 2.61765 2.48053C2.14757 2.38657 1.52195 2.61517 1.08424 2.83029Z" fill="#EDE8D0"/>
<path d="M4.50521 3.11355C4.2663 3.11355 4.03743 3.02905 3.85266 2.87178C3.64355 2.69332 3.51636 2.44325 3.49488 2.1671C3.45764 1.68958 3.81141 1.2662 4.28349 1.22409C4.49089 1.20805 4.70544 1.28481 4.85956 1.43492C5.08042 1.65062 5.15576 1.93593 5.06094 2.19804C5.01224 2.33296 4.92201 2.44554 4.80771 2.52259C5.09674 2.45413 5.60091 2.2327 5.99622 1.51914C6.25375 1.06167 6.59291 0.646588 6.90458 0.407682L6.93494 0.382759C7.38583 0.0158073 7.98538 -0.0953358 8.53996 0.0842729C9.06962 0.256147 9.47095 0.676374 9.61246 1.20833C9.62334 1.249 9.63251 1.28968 9.64082 1.33122C9.71845 1.73169 9.61676 2.15536 9.36238 2.49424C8.99829 2.97921 8.47637 3.19777 7.96504 3.07947C7.48838 2.9689 7.12028 2.58361 7.02747 2.09721C6.97419 1.81849 7.04322 1.52343 7.21681 1.28768C7.47405 0.938771 7.84874 0.780648 8.21827 0.864294C8.56431 0.942783 8.83129 1.22122 8.89832 1.57328C8.97824 1.99294 8.70582 2.40113 8.29046 2.48278L8.18275 1.93478C8.29733 1.91215 8.37238 1.797 8.34947 1.67783C8.32397 1.54377 8.224 1.43835 8.09452 1.40885C7.94298 1.37419 7.79174 1.44895 7.66655 1.61882C7.58491 1.72968 7.55197 1.86603 7.57603 1.99236C7.62759 2.26163 7.82955 2.47476 8.09137 2.5352C8.38441 2.60252 8.68491 2.46617 8.91579 2.1588C9.07821 1.94281 9.14095 1.68671 9.09254 1.43835C9.08681 1.40971 9.08022 1.38049 9.07277 1.35184C8.97881 0.998927 8.72158 0.730803 8.3678 0.615934C7.99455 0.494762 7.59093 0.569529 7.28786 0.816169L7.25119 0.845962C6.99366 1.0439 6.70205 1.40427 6.48406 1.79184C5.7788 3.06515 4.74841 3.11728 4.57282 3.11184C4.55019 3.11299 4.52784 3.11355 4.50521 3.11355ZM4.34451 1.78009C4.34079 1.78009 4.33706 1.7801 4.33334 1.78038C4.16462 1.79557 4.03857 1.94939 4.05203 2.12356C4.06177 2.25046 4.11993 2.36533 4.21532 2.44668C4.29409 2.51371 4.39005 2.55095 4.49089 2.55468L4.45222 2.07458C4.49776 2.07085 4.52584 2.03648 4.53586 2.00812C4.55477 1.95599 4.53128 1.8944 4.46969 1.83424C4.43474 1.80073 4.38691 1.78009 4.34451 1.78009Z" fill="#EDE8D0"/>
<path d="M8.00916 5.66459C7.62301 5.66459 7.24403 5.53311 6.93523 5.28188L6.89799 5.25152C6.59291 5.01749 6.25375 4.60269 5.99708 4.14694C5.60177 3.43337 5.09847 3.21137 4.80829 3.14234C4.9223 3.21911 5.01224 3.3314 5.06094 3.46603C5.15576 3.72843 5.08042 4.01374 4.85985 4.22945C4.70545 4.37984 4.48917 4.45861 4.28378 4.44028C3.81142 4.39817 3.45764 3.97507 3.49488 3.49697C3.51636 3.22111 3.64355 2.97075 3.85267 2.79257C4.05462 2.62041 4.30928 2.53533 4.57282 2.55309C4.57396 2.55309 4.57511 2.55309 4.57654 2.55309C4.75157 2.55309 5.78367 2.60867 6.48521 3.87481C6.70263 4.26067 6.99395 4.62103 7.24489 4.81381L7.28843 4.84905C7.59122 5.09483 7.99455 5.17046 8.36809 5.049C8.72215 4.93413 8.9791 4.66572 9.07306 4.31223C9.08051 4.28416 9.0871 4.25523 9.09283 4.22572C9.14095 3.97765 9.07822 3.72184 8.9158 3.50585C8.6852 3.19877 8.38499 3.06041 8.09108 3.12945C7.82983 3.18989 7.6276 3.40301 7.57604 3.67228C7.55197 3.79861 7.58491 3.93496 7.66655 4.04582C7.79174 4.2154 7.9427 4.29017 8.09452 4.25579C8.224 4.22629 8.32398 4.12088 8.34947 3.9871C8.3721 3.86793 8.29733 3.75278 8.18246 3.73015L8.29075 3.18216C8.70582 3.26408 8.97824 3.67228 8.89832 4.09194C8.83129 4.444 8.5646 4.72215 8.21856 4.80093C7.84903 4.88514 7.47434 4.72673 7.2171 4.37754C7.04351 4.14179 6.97448 3.84674 7.02776 3.56773C7.12057 3.08161 7.48866 2.69604 7.96533 2.58546C8.47608 2.46773 8.99858 2.68601 9.36267 3.1707C9.61733 3.50957 9.71873 3.93325 9.64139 4.33285C9.63308 4.37496 9.62363 4.41564 9.61303 4.45603C9.47124 4.98855 9.0702 5.40878 8.54025 5.58066C8.36551 5.63709 8.18676 5.66459 8.00916 5.66459ZM4.4906 3.10969C4.39006 3.11312 4.29381 3.15064 4.21503 3.21767C4.11964 3.29932 4.06178 3.4139 4.05175 3.5408C4.038 3.71525 4.16433 3.86936 4.33305 3.88426C4.3766 3.88913 4.4316 3.86707 4.46941 3.83012C4.53071 3.77025 4.5542 3.70838 4.53529 3.65624C4.52498 3.62788 4.49691 3.59351 4.45165 3.58979L4.4906 3.10969Z" fill="#EDE8D0"/>
<path d="M67.0017 2.55469H8.32812V3.11328H67.0017V2.55469Z" fill="#EDE8D0"/>
</svg>
