<svg width="44" height="52" viewBox="0 0 44 52" fill="none" xmlns="http://www.w3.org/2000/svg">
<path d="M32.1533 12.8252C32.4222 12.5558 32.4302 12.1278 32.1713 11.8689C31.9124 11.6095 31.4844 11.618 31.215 11.8869C30.9461 12.1563 30.9377 12.5842 31.1971 12.8431C31.4554 13.1025 31.8839 13.094 32.1533 12.8252Z" fill="#EDE8D0"/>
<path d="M12.0978 38.5746C11.829 38.8434 11.8205 39.2719 12.0799 39.5308C12.3393 39.7902 12.7672 39.7817 13.0361 39.5129C13.305 39.2435 13.3135 38.8155 13.0541 38.5566C12.7947 38.2972 12.3667 38.3052 12.0978 38.5746Z" fill="#EDE8D0"/>
<path d="M13.7236 21.9283C13.9925 21.6594 13.9925 21.223 13.7236 20.9536C13.4547 20.6847 13.0183 20.6847 12.7489 20.9536C12.4795 21.223 12.4795 21.6589 12.7489 21.9283C13.0183 22.1977 13.4547 22.1977 13.7236 21.9283Z" fill="#EDE8D0"/>
<path d="M21.2891 12.7299C21.2891 13.1105 21.5973 13.4193 21.9784 13.4193C22.359 13.4193 22.6678 13.1105 22.6678 12.7299C22.6678 12.3493 22.359 12.041 21.9784 12.041C21.5978 12.041 21.2891 12.3493 21.2891 12.7299Z" fill="#EDE8D0"/>
<path d="M21.9784 20.752C21.5978 20.752 21.2891 21.0607 21.2891 21.4413C21.2891 21.8219 21.5973 22.1307 21.9784 22.1307C22.359 22.1307 22.6678 21.8219 22.6678 21.4413C22.6678 21.0602 22.359 20.752 21.9784 20.752Z" fill="#EDE8D0"/>
<path d="M13.9256 30.1816C13.9256 29.801 13.6169 29.4922 13.2363 29.4922C12.8556 29.4922 12.5469 29.8005 12.5469 30.1816C12.5469 30.5622 12.8556 30.8704 13.2363 30.8704C13.6169 30.8704 13.9256 30.5622 13.9256 30.1816Z" fill="#EDE8D0"/>
<path d="M11.9442 12.0204C11.6748 12.2893 11.6748 12.7257 11.9442 12.9951C12.2131 13.264 12.6496 13.264 12.9189 12.9951C13.1878 12.7257 13.1878 12.2893 12.9189 12.0204C12.6496 11.751 12.2131 11.751 11.9442 12.0204Z" fill="#EDE8D0"/>
<path d="M3.66296 29.8641C3.3936 30.1335 3.3936 30.5695 3.66296 30.8388C3.93183 31.1082 4.3683 31.1082 4.63767 30.8388C4.90653 30.57 4.90653 30.1335 4.63767 29.8641C4.3683 29.5948 3.93183 29.5948 3.66296 29.8641Z" fill="#EDE8D0"/>
<path d="M22.6678 3.76895C22.6678 3.38834 22.359 3.08008 21.9784 3.08008C21.5978 3.08008 21.2891 3.38834 21.2891 3.76895C21.2891 4.14955 21.5973 4.45833 21.9784 4.45833C22.359 4.45833 22.6678 4.14955 22.6678 3.76895Z" fill="#EDE8D0"/>
<path d="M4.41594 21.7538C4.79654 21.7538 5.10532 21.445 5.10532 21.0644C5.10532 20.6838 4.79654 20.375 4.41594 20.375C4.03534 20.375 3.72656 20.6838 3.72656 21.0644C3.72656 21.445 4.03534 21.7538 4.41594 21.7538Z" fill="#EDE8D0"/>
<path d="M30.2798 29.5907C30.0109 29.8596 30.0109 30.296 30.2798 30.5654C30.5486 30.8343 30.9851 30.8343 31.2545 30.5654C31.5238 30.296 31.5238 29.8601 31.2545 29.5907C30.9851 29.3213 30.5486 29.3213 30.2798 29.5907Z" fill="#EDE8D0"/>
<path d="M22.7147 38.789C22.7147 38.4084 22.4064 38.0996 22.0253 38.0996C21.6447 38.0996 21.3359 38.4084 21.3359 38.789C21.3359 39.1696 21.6447 39.4779 22.0253 39.4779C22.4059 39.4779 22.7147 39.1696 22.7147 38.789Z" fill="#EDE8D0"/>
<path d="M22.0253 30.7674C22.4059 30.7674 22.7147 30.4587 22.7147 30.0781C22.7147 29.6975 22.4064 29.3887 22.0253 29.3887C21.6447 29.3887 21.3359 29.697 21.3359 30.0781C21.3359 30.4592 21.6447 30.7674 22.0253 30.7674Z" fill="#EDE8D0"/>
<path d="M30.0781 21.3393C30.0781 21.7199 30.3869 22.0286 30.767 22.0286C31.1476 22.0286 31.4564 21.7199 31.4564 21.3393C31.4564 20.9587 31.1476 20.6504 30.767 20.6504C30.3869 20.6504 30.0781 20.9587 30.0781 21.3393Z" fill="#EDE8D0"/>
<path d="M32.067 39.4967C32.3363 39.2278 32.3363 38.7913 32.067 38.522C31.7981 38.2531 31.3616 38.2531 31.0923 38.522C30.8234 38.7913 30.8234 39.2278 31.0923 39.4967C31.3616 39.766 31.7976 39.766 32.067 39.4967Z" fill="#EDE8D0"/>
<path d="M42.954 18.0759C42.2636 17.3856 41.3353 17.0114 40.3531 17.0254C39.4083 17.0379 38.5139 17.403 37.8225 18.0565L37.821 18.055L35.2271 20.6489L31.5029 16.9246L33.6409 14.7862C33.6638 14.7632 35.9405 12.524 37.9891 13.0553C39.1414 13.358 39.6467 12.9984 39.8672 12.6432C40.1925 12.1195 39.9909 11.4176 39.6228 10.9951C37.0838 8.07848 32.8767 6.22335 28.6855 9.76351L26.4239 12.0227L22.7994 8.39823C23.7676 7.51281 25.8068 5.45515 25.8068 3.82997C25.8068 1.71794 24.0889 0 21.9773 0C19.8658 0 18.1474 1.71794 18.1474 3.82997C18.1474 5.45515 20.1866 7.51331 21.1543 8.39873L17.6196 11.9329L15.544 9.85729L15.5086 9.82436C11.3065 6.29866 6.99112 8.26205 4.35383 11.2755C3.97173 11.7119 3.75923 12.4297 4.09144 12.957C4.31442 13.3107 4.82572 13.6638 5.99247 13.3366C8.08654 12.7565 10.3702 14.9892 10.3916 15.0102L12.4548 17.0733L10.7792 18.7489C9.2937 20.2344 9.2937 22.6512 10.7792 24.1362L12.4548 25.8117L8.77542 29.4911L5.09758 25.8137C5.99496 25.0101 8.23918 22.8287 8.23918 21.1233C8.23918 19.0112 6.52122 17.2933 4.4097 17.2933C2.29817 17.2933 0.579713 19.0112 0.579713 21.1233C0.579713 22.7664 2.6643 24.852 3.61906 25.7204L1.10597 28.2335C1.10099 28.2385 1.096 28.244 1.09051 28.249L1.02816 28.3118L1.02915 28.3128C-0.346608 29.7699 -0.346108 32.049 1.04911 33.4438C1.74946 34.1441 2.67179 34.4928 3.6016 34.4928C4.52393 34.4928 5.45374 34.1491 6.17953 33.4647L6.18053 33.4657L6.24887 33.3979C6.25236 33.3944 6.25535 33.3914 6.25884 33.3879C6.25884 33.3879 6.25934 33.3869 6.25984 33.3864L8.77542 30.8708L12.5605 34.6554L10.6041 36.6123C10.5812 36.6348 8.29555 38.873 6.25485 38.3437C5.10207 38.0404 4.59725 38.4006 4.37677 38.7558C4.05154 39.2795 4.25356 39.9814 4.6212 40.4039C6.17304 42.1867 8.34792 43.5724 10.7612 43.5724C12.2966 43.5724 13.9288 43.0112 15.5584 41.635L17.6385 39.5569L21.2027 43.121C20.2344 44.0064 18.1952 46.064 18.1952 47.6897C18.1952 49.8013 19.9132 51.5192 22.0252 51.5192C24.1368 51.5192 25.8547 49.8013 25.8547 47.6897C25.8547 46.0645 23.8155 44.0064 22.8478 43.121L26.3825 39.5868L28.4581 41.6624L28.4935 41.6953C30.0877 43.0332 31.6975 43.5804 33.2268 43.5804C35.728 43.5804 38.0116 42.1143 39.6487 40.2442C40.0308 39.8078 40.2438 39.09 39.9111 38.5627C39.6881 38.2085 39.1763 37.8559 38.0106 38.1831C35.9165 38.7632 33.6329 36.5305 33.6114 36.509L31.5483 34.4459L33.2239 32.7703C34.7094 31.2848 34.7094 28.868 33.2239 27.3825L31.5483 25.707L35.2276 22.0276L38.9055 25.7055C38.0081 26.5096 35.7639 28.6904 35.7639 30.3954C35.7639 32.5075 37.4818 34.2254 39.5939 34.2254C41.7054 34.2254 43.4233 32.5075 43.4233 30.3954C43.4233 28.7518 41.3388 26.6667 40.3845 25.7978L42.9749 23.2074L42.9739 23.2064C44.3492 21.7503 44.3492 19.4712 42.954 18.0759ZM21.9778 26.5964L22.0542 26.5206L25.6118 30.0782L22.0387 33.6513L22.0262 33.6388L22.0138 33.6513L18.4686 30.1061L21.9778 26.5964ZM26.4234 22.1509L29.9805 25.7085L26.3949 29.294L22.8378 25.7364L26.4234 22.1509ZM22.0257 24.9243L21.9494 25.0006L18.3918 21.443L21.9649 17.8699L21.9768 17.8824L21.9888 17.8699L25.534 21.4151L22.0257 24.9243ZM17.5961 13.5007L21.1812 17.0863L17.6081 20.6594L14.0226 17.0738L17.5961 13.5007ZM17.6081 22.2272L21.1657 25.7848L17.5802 29.3703L14.0226 25.8127L14.5269 25.3084L17.6081 22.2272ZM17.6844 30.8893L21.2296 34.4344L17.6735 37.9906L14.1283 34.4454L17.6844 30.8893ZM29.9805 34.4469L26.4074 38.02L22.8223 34.4349L26.3954 30.8618L28.1882 32.6546L29.9805 34.4469ZM26.3191 20.6314L22.774 17.0863L26.5117 13.3486L30.0568 16.8937L26.3191 20.6314ZM29.4193 10.5961C33.9122 6.81845 37.7253 10.5028 38.7878 11.7234C38.8795 11.8291 38.9224 11.9743 38.9229 12.0446C38.8616 12.0621 38.6765 12.09 38.27 11.9828C35.6132 11.2939 32.9705 13.8903 32.8582 14.002L30.7951 16.0652L27.3726 12.6427L29.4193 10.5961ZM21.9898 16.3021L18.4042 12.7171L21.9773 9.14397L25.5629 12.729L21.9898 16.3021ZM19.2567 3.82997C19.2567 2.3295 20.4774 1.10889 21.9778 1.10889C23.4783 1.10889 24.6989 2.3295 24.6989 3.82997C24.6989 4.8391 23.1865 6.55007 22.0157 7.61406L21.9778 7.57616L21.9399 7.61406C20.7692 6.55057 19.2567 4.8391 19.2567 3.82997ZM6.71676 12.1324C6.38056 12.1324 6.03836 12.1743 5.69517 12.2691C5.2976 12.3808 5.10655 12.3634 5.03622 12.3479C5.04121 12.2701 5.09059 12.118 5.18836 12.0062C6.29925 10.7372 10.2694 6.89526 14.7783 10.6594L16.824 12.7051L13.2384 16.2906L11.1748 14.227C11.078 14.1292 9.04329 12.1324 6.71676 12.1324ZM11.5639 19.533L13.2394 17.8574L16.825 21.443L14.1358 24.1322L13.2394 25.0286L11.5639 23.353C10.5103 22.3 10.5103 20.5865 11.5639 19.533ZM1.6891 21.1243C1.6891 19.6238 2.90973 18.4032 4.41019 18.4032C5.91066 18.4032 7.13129 19.6238 7.13129 21.1243C7.13129 22.1444 5.58593 23.8823 4.41019 24.9433C3.23496 23.8823 1.6891 22.1439 1.6891 21.1243ZM5.45025 32.6292C4.42865 33.6238 2.81345 33.6408 1.83326 32.6606C0.849079 31.6764 0.870527 30.0522 1.87766 29.0312L4.31242 26.5964L7.89798 30.1819L5.45025 32.6292ZM13.2389 26.5964L16.8245 30.1819L13.2389 33.767L9.65335 30.1819L13.2389 26.5964ZM14.8262 40.8039C10.3323 44.582 6.52023 40.8977 5.45773 39.6771C5.36594 39.5713 5.32305 39.4257 5.32255 39.3553C5.3834 39.3379 5.56847 39.3099 5.97551 39.4172C8.63225 40.1066 11.2755 37.5097 11.3873 37.3984L13.4504 35.3348L16.8729 38.7577L14.8262 40.8039ZM22.0133 35.2186L22.0257 35.231L25.5988 38.8041L22.0257 42.3772L18.4402 38.7922L22.0133 35.2186ZM24.7468 47.6907C24.7468 49.1912 23.5262 50.4118 22.0257 50.4118C20.5253 50.4118 19.3046 49.1912 19.3046 47.6907C19.3046 46.6816 20.8171 44.9706 21.9878 43.9066L22.0257 43.9445L22.0641 43.9061C23.2349 44.9691 24.7468 46.6796 24.7468 47.6907ZM37.2868 39.3883C37.623 39.3883 37.9652 39.3469 38.3084 39.2516C38.705 39.1403 38.8965 39.1573 38.9673 39.1728C38.9623 39.2511 38.9125 39.4027 38.8147 39.5145C37.7043 40.7835 33.7342 44.6259 29.2248 40.8618L27.1791 38.8161L30.7646 35.2305L32.8283 37.2942C32.9256 37.392 34.9603 39.3888 37.2868 39.3883ZM32.4402 28.1677C33.4932 29.2207 33.4932 30.9347 32.4402 31.9877L30.7646 33.6632L28.9719 31.8705L27.1791 30.0777L30.5277 26.7286L30.7646 26.4921L32.4402 28.1677ZM30.7646 24.9243L27.1791 21.3388L30.7646 17.7532L34.3502 21.3388L30.7646 24.9243ZM42.3145 30.3964C42.3145 31.8969 41.0938 33.118 39.5934 33.118C38.0929 33.118 36.8723 31.8974 36.8723 30.3964C36.8723 29.3763 38.4181 27.6384 39.5934 26.5774C40.7691 27.6389 42.3145 29.3768 42.3145 30.3964ZM42.1129 22.5025L39.6911 24.9243L36.1056 21.3388L38.5274 18.917C39.0232 18.4206 39.6767 18.1428 40.3675 18.1338C41.0599 18.1263 41.6929 18.3827 42.1698 18.8596C43.1585 19.8483 43.1325 21.4824 42.1129 22.5025Z" fill="#EDE8D0"/>
<path d="M39.3739 20.6805C39.1045 20.9494 39.1045 21.3859 39.3739 21.6552C39.6428 21.9246 40.0792 21.9246 40.3486 21.6552C40.618 21.3859 40.618 20.9499 40.3486 20.6805C40.0792 20.4112 39.6428 20.4112 39.3739 20.6805Z" fill="#EDE8D0"/>
<path d="M21.3359 47.746C21.3359 48.1266 21.6447 48.4349 22.0253 48.4349C22.4059 48.4349 22.7147 48.1266 22.7147 47.746C22.7147 47.3654 22.4064 47.0566 22.0253 47.0566C21.6447 47.0566 21.3359 47.3654 21.3359 47.746Z" fill="#EDE8D0"/>
<path d="M39.5956 29.7637C39.215 29.7637 38.9062 30.0724 38.9062 30.453C38.9062 30.8336 39.215 31.1424 39.5956 31.1424C39.9762 31.1424 40.285 30.8341 40.285 30.453C40.285 30.0724 39.9762 29.7637 39.5956 29.7637Z" fill="#EDE8D0"/>
</svg>
