<svg width="261" height="12" viewBox="0 0 261 12" fill="none" xmlns="http://www.w3.org/2000/svg">
<path d="M256.353 7.32707C256.127 7.32707 255.905 7.30754 255.688 7.26402C254.828 7.09161 254.25 6.38917 254.25 5.51544C254.25 4.64171 254.828 3.9387 255.688 3.7663C257.673 3.36682 260.194 4.98987 260.3 5.05905L261 5.51488L260.3 5.97072C260.205 6.03265 258.195 7.32707 256.353 7.32707ZM255.902 4.83309C255.486 4.91622 255.339 5.23982 255.339 5.51544C255.339 5.7905 255.487 6.1141 255.902 6.19723C256.814 6.37856 258.033 5.93389 258.887 5.51488C258.034 5.09642 256.814 4.65064 255.902 4.83309Z" fill="#550000"/>
<path d="M252.217 6.06534C252.174 6.06534 252.13 6.06367 252.086 6.06088C252.083 6.06088 252.081 6.06088 252.078 6.06088C251.737 6.06088 249.727 5.95265 248.361 3.48657C247.938 2.73503 247.37 2.03313 246.881 1.65764L246.796 1.58902C246.206 1.1092 245.419 0.964133 244.693 1.19958C244.004 1.42332 243.503 1.94609 243.32 2.63403C243.306 2.68982 243.293 2.74507 243.282 2.80086C243.188 3.28571 243.31 3.7845 243.626 4.20519C244.075 4.8033 244.661 5.07055 245.232 4.93832C245.741 4.82059 246.135 4.40549 246.236 3.88103C246.282 3.63498 246.218 3.36995 246.059 3.15347C245.816 2.82261 245.519 2.67699 245.226 2.7445C244.974 2.80197 244.779 3.0073 244.729 3.26786C244.685 3.49996 244.831 3.72425 245.054 3.76833L244.844 4.83566C244.035 4.67665 243.505 3.88158 243.66 3.0642C243.791 2.37794 244.311 1.83619 244.985 1.68332C245.706 1.51984 246.434 1.82838 246.935 2.50795C247.273 2.96713 247.408 3.54236 247.304 4.08467C247.123 5.03205 246.406 5.78303 245.477 5.99783C244.481 6.22826 243.465 5.802 242.756 4.85797C242.26 4.19737 242.063 3.37275 242.213 2.59386C242.229 2.51241 242.247 2.4315 242.269 2.35227C242.545 1.3173 243.325 0.498803 244.358 0.16404C245.437 -0.185786 246.606 0.0312599 247.483 0.744862L247.556 0.803997C248.15 1.25983 248.811 2.06774 249.31 2.95541C250.08 4.34524 251.061 4.77819 251.626 4.91266C251.404 4.76257 251.229 4.54385 251.134 4.28106C250.95 3.76999 251.096 3.21428 251.527 2.79471C251.826 2.5018 252.245 2.34725 252.648 2.38408C253.568 2.46665 254.257 3.29072 254.185 4.22136C254.143 4.7581 253.896 5.24575 253.488 5.59334C253.13 5.90132 252.683 6.06534 252.217 6.06534ZM252.531 3.46814C252.448 3.46814 252.355 3.50832 252.288 3.57415C252.168 3.69132 252.122 3.81128 252.158 3.91282C252.178 3.96806 252.233 4.03502 252.321 4.04227L252.246 4.97738C252.442 4.97012 252.63 4.89758 252.782 4.76703C252.968 4.60857 253.081 4.38541 253.1 4.13824C253.127 3.79901 252.881 3.49884 252.552 3.46927C252.545 3.46815 252.538 3.46814 252.531 3.46814Z" fill="#550000"/>
<path d="M245.391 11.0412C245.046 11.0412 244.697 10.9871 244.357 10.8766C243.325 10.5418 242.544 9.72334 242.269 8.68725C242.247 8.60858 242.229 8.52769 242.213 8.44567C242.063 7.66847 242.26 6.84326 242.756 6.18322C243.466 5.23919 244.482 4.81293 245.477 5.04336C246.406 5.25816 247.123 6.00916 247.304 6.95653C247.408 7.49941 247.273 8.07408 246.935 8.53382C246.434 9.21339 245.705 9.52249 244.985 9.35845C244.311 9.20558 243.791 8.66382 243.66 7.97755C243.504 7.16017 244.035 6.36568 244.843 6.20611L245.054 7.27344C244.831 7.31752 244.685 7.54237 244.729 7.77391C244.778 8.03503 244.974 8.24034 245.225 8.29725C245.52 8.3642 245.815 8.21858 246.058 7.88828C246.218 7.6718 246.282 7.40679 246.235 7.16074C246.135 6.63628 245.741 6.22117 245.231 6.10289C244.66 5.97122 244.075 6.23847 243.626 6.83658C243.309 7.25727 243.187 7.75549 243.281 8.23978C243.293 8.29725 243.305 8.35249 243.319 8.40661C243.503 9.09567 244.003 9.61846 244.692 9.84275C245.418 10.0782 246.206 9.93257 246.796 9.45275L246.867 9.39472C247.369 9.00918 247.937 8.3073 248.361 7.55241C249.735 5.07293 251.758 5.0004 252.084 4.98143C252.596 4.94517 253.094 5.11255 253.487 5.44843C253.894 5.79547 254.142 6.28309 254.183 6.82039C254.256 7.75103 253.567 8.57511 252.647 8.65713C252.244 8.69451 251.826 8.5394 251.526 8.24704C251.096 7.82691 250.949 7.2712 251.134 6.76013C251.229 6.49734 251.405 6.27807 251.627 6.12799C251.065 6.26134 250.082 6.69263 249.312 8.08246C248.81 8.97348 248.149 9.78136 247.542 10.2472L247.483 10.2958C246.882 10.7851 246.144 11.0412 245.391 11.0412ZM252.246 6.06496L252.321 7.00006C252.232 7.00731 252.178 7.07426 252.158 7.12949C252.121 7.23104 252.167 7.35155 252.287 7.46816C252.36 7.53958 252.466 7.58086 252.552 7.57305C252.881 7.54403 253.127 7.24386 253.1 6.90464C253.081 6.65747 252.968 6.43374 252.783 6.27529C252.629 6.14473 252.442 6.07165 252.246 6.06496Z" fill="#550000"/>
<path d="M244.78 4.97656H130.5V6.06455H244.78V4.97656Z" fill="#550000"/>
<path d="M4.64762 7.32651C2.80587 7.32651 0.795064 6.03208 0.700214 5.9707L0 5.51488L0.700214 5.05903C0.806222 4.98985 3.32252 3.36682 5.31212 3.7663C6.17246 3.9387 6.74993 4.64171 6.74993 5.51544C6.74993 6.38917 6.1719 7.09161 5.31212 7.26402C5.09564 7.30698 4.87303 7.32651 4.64762 7.32651ZM2.1118 5.51432C2.96544 5.93333 4.18732 6.37856 5.09843 6.19723C5.5141 6.1141 5.66196 5.7905 5.66196 5.51544C5.66196 5.23982 5.51354 4.91676 5.09843 4.83307C4.18286 4.65007 2.96432 5.0953 2.1118 5.51432Z" fill="#550000"/>
<path d="M8.77777 6.06432C8.31245 6.06432 7.86666 5.89973 7.50679 5.59342C7.09949 5.24583 6.85177 4.75875 6.80993 4.2209C6.7374 3.29082 7.42644 2.46619 8.34592 2.38418C8.74987 2.35293 9.16777 2.50245 9.46794 2.79481C9.89811 3.21494 10.0448 3.77065 9.86017 4.28116C9.76532 4.54395 9.58957 4.76322 9.36695 4.9133C9.92991 4.77995 10.9119 4.34867 11.6818 2.95885C12.1834 2.06782 12.844 1.25937 13.4511 0.79405L13.5102 0.745506C14.3884 0.0307882 15.5562 -0.185687 16.6363 0.16414C17.6679 0.498902 18.4496 1.31739 18.7252 2.35348C18.7464 2.4327 18.7643 2.51194 18.7805 2.59284C18.9317 3.37284 18.7336 4.19803 18.2382 4.85807C17.529 5.80265 16.5125 6.22836 15.5165 5.99793C14.5881 5.78257 13.8712 5.03215 13.6904 4.08477C13.5866 3.5419 13.7211 2.96721 14.0592 2.50803C14.5602 1.82846 15.29 1.52048 16.0098 1.6834C16.6837 1.83627 17.2037 2.37859 17.3343 3.0643C17.49 3.88168 16.9594 4.67673 16.1504 4.83574L15.9406 3.76841C16.1637 3.72433 16.3099 3.50004 16.2653 3.26794C16.2156 3.00682 16.0209 2.80151 15.7687 2.74404C15.4736 2.67653 15.179 2.82215 14.9352 3.15301C14.7762 3.36893 14.712 3.6345 14.7589 3.88055C14.8593 4.40501 15.2526 4.82013 15.7626 4.93785C16.3334 5.06897 16.9186 4.80339 17.3683 4.20473C17.6847 3.78404 17.8069 3.28524 17.7126 2.8015C17.7014 2.74571 17.6886 2.6888 17.6741 2.63301C17.4911 1.94563 16.9901 1.4234 16.301 1.19966C15.574 0.963657 14.7879 1.10928 14.1976 1.58967L14.1262 1.64769C13.6246 2.03323 13.0566 2.73512 12.632 3.49C11.2584 5.97004 9.25146 6.07158 8.90945 6.06098C8.86537 6.06321 8.82185 6.06432 8.77777 6.06432ZM8.46477 3.46712C8.45752 3.46712 8.45026 3.46712 8.44301 3.46768C8.11439 3.49725 7.86889 3.79686 7.89511 4.13609C7.91408 4.38326 8.02735 4.60698 8.21314 4.76544C8.36657 4.896 8.55348 4.96854 8.74987 4.97579L8.67455 4.04069C8.76326 4.03344 8.81795 3.96649 8.83747 3.91125C8.8743 3.80971 8.82855 3.68975 8.70859 3.57259C8.64052 3.50731 8.54735 3.46712 8.46477 3.46712Z" fill="#550000"/>
<path d="M15.6103 11.0414C14.8582 11.0414 14.12 10.7853 13.5186 10.296L13.446 10.2368C12.8518 9.78101 12.1912 8.9731 11.6913 8.08543C10.9214 6.6956 9.94108 6.26321 9.37589 6.12874C9.59795 6.27827 9.77314 6.49699 9.86799 6.75922C10.0527 7.27029 9.90592 7.826 9.47631 8.24613C9.17558 8.53904 8.75435 8.69247 8.35431 8.65676C7.43427 8.57475 6.74521 7.75067 6.81774 6.81948C6.85958 6.28218 7.10731 5.79454 7.51461 5.4475C7.90795 5.11218 8.40396 4.94647 8.91726 4.98106C8.91949 4.98106 8.92172 4.98106 8.92451 4.98106C9.26541 4.98106 11.2757 5.08931 12.6421 7.55539C13.0655 8.30694 13.6329 9.00881 14.1217 9.38431L14.2065 9.45294C14.7963 9.93165 15.5818 10.0789 16.3094 9.84238C16.999 9.61865 17.4995 9.09587 17.6825 8.40737C17.697 8.35269 17.7098 8.29634 17.721 8.23887C17.8147 7.7557 17.6925 7.25746 17.3762 6.83677C16.927 6.23867 16.3423 5.96918 15.7698 6.10365C15.261 6.22137 14.8671 6.63647 14.7667 7.16093C14.7198 7.40698 14.784 7.67255 14.943 7.88848C15.1868 8.21877 15.4808 8.3644 15.7765 8.29744C16.0287 8.23998 16.2235 8.03466 16.2731 7.77411C16.3172 7.542 16.1716 7.31771 15.9478 7.27363L16.1587 6.2063C16.9672 6.36587 17.4978 7.16093 17.3421 7.97831C17.2116 8.66401 16.6921 9.20578 16.0181 9.35921C15.2984 9.52324 14.5686 9.2147 14.0676 8.53458C13.7295 8.0754 13.595 7.50072 13.6988 6.95729C13.8796 6.01047 14.5965 5.25948 15.5249 5.04411C16.5197 4.8148 17.5374 5.23995 18.2465 6.18398C18.7425 6.84402 18.9401 7.66921 18.7894 8.44754C18.7732 8.52955 18.7548 8.60878 18.7342 8.68745C18.458 9.72465 17.6769 10.5431 16.6447 10.8779C16.3044 10.9878 15.9562 11.0414 15.6103 11.0414ZM8.75713 6.06515C8.56129 6.07184 8.37383 6.14492 8.2204 6.27548C8.03461 6.43449 7.9219 6.65766 7.90237 6.90483C7.87559 7.24461 8.12165 7.54479 8.45027 7.5738C8.53508 7.58329 8.6422 7.54033 8.71585 7.46835C8.83525 7.35174 8.881 7.23123 8.84417 7.12969C8.82409 7.07445 8.76941 7.0075 8.68126 7.00025L8.75713 6.06515Z" fill="#550000"/>
<path d="M130.498 4.97656H16.2188V6.06455H130.498V4.97656Z" fill="#550000"/>
</svg>
