<svg width="323" height="11" viewBox="0 0 323 11" fill="none" xmlns="http://www.w3.org/2000/svg">
<path d="M318.171 6.80191C317.962 6.80191 317.756 6.78378 317.554 6.74338C316.755 6.58332 316.219 5.93118 316.219 5.12002C316.219 4.30887 316.755 3.65621 317.554 3.49615C319.397 3.12528 321.737 4.63209 321.836 4.69632L322.485 5.1195L321.836 5.5427C321.748 5.6002 319.881 6.80191 318.171 6.80191ZM317.752 4.48654C317.367 4.56372 317.229 4.86414 317.229 5.12002C317.229 5.37539 317.367 5.67581 317.752 5.75299C318.599 5.92133 319.731 5.50851 320.524 5.1195C319.732 4.73102 318.599 4.31716 317.752 4.48654Z" fill="#550000"/>
<path d="M314.333 5.63097C314.293 5.63097 314.252 5.62942 314.211 5.62683C314.209 5.62683 314.207 5.62683 314.204 5.62683C313.888 5.62683 312.022 5.52635 310.753 3.23688C310.36 2.53916 309.833 1.88753 309.379 1.53893L309.301 1.47522C308.753 1.02976 308.022 0.895086 307.348 1.11367C306.708 1.32138 306.243 1.80672 306.074 2.44539C306.06 2.49719 306.048 2.54848 306.038 2.60028C305.951 3.0504 306.064 3.51347 306.357 3.90403C306.774 4.45931 307.318 4.70742 307.848 4.58465C308.321 4.47536 308.687 4.08999 308.78 3.60309C308.823 3.37466 308.764 3.12861 308.616 2.92763C308.39 2.62047 308.115 2.48528 307.842 2.54795C307.608 2.6013 307.428 2.79193 307.381 3.03383C307.341 3.24931 307.476 3.45754 307.683 3.49846L307.488 4.48935C306.737 4.34173 306.244 3.6036 306.388 2.84475C306.51 2.20764 306.993 1.70469 307.619 1.56276C308.288 1.411 308.964 1.69744 309.429 2.32834C309.743 2.75464 309.868 3.28867 309.772 3.79215C309.604 4.67168 308.938 5.36887 308.076 5.56829C307.151 5.78222 306.208 5.38648 305.55 4.51006C305.089 3.89677 304.906 3.1312 305.046 2.4081C305.06 2.33248 305.077 2.25736 305.098 2.18381C305.354 1.22296 306.078 0.463081 307.036 0.152292C308.039 -0.172481 309.123 0.0290212 309.938 0.691518L310.006 0.746418C310.557 1.16961 311.17 1.91965 311.635 2.74376C312.349 4.03405 313.26 4.436 313.785 4.56083C313.579 4.4215 313.415 4.21844 313.328 3.97447C313.156 3.5 313.293 2.98409 313.692 2.59457C313.97 2.32263 314.359 2.17915 314.733 2.21334C315.587 2.29 316.227 3.05506 316.16 3.91905C316.121 4.41735 315.891 4.87007 315.513 5.19277C315.18 5.47869 314.766 5.63097 314.333 5.63097ZM314.624 3.21977C314.548 3.21977 314.461 3.25707 314.399 3.31819C314.287 3.42696 314.245 3.53833 314.278 3.6326C314.297 3.68388 314.348 3.74605 314.43 3.75278L314.36 4.62092C314.541 4.61418 314.716 4.54684 314.858 4.42563C315.03 4.27852 315.135 4.07134 315.153 3.84188C315.178 3.52694 314.949 3.24827 314.644 3.22081C314.637 3.21978 314.631 3.21977 314.624 3.21977Z" fill="#550000"/>
<path d="M307.996 10.2475C307.675 10.2475 307.352 10.1973 307.036 10.0947C306.078 9.78391 305.353 9.02402 305.097 8.06213C305.077 7.9891 305.06 7.914 305.046 7.83786C304.906 7.11631 305.089 6.3502 305.55 5.73743C306.209 4.86101 307.152 4.46527 308.076 4.6792C308.938 4.87862 309.604 5.57583 309.772 6.45536C309.868 6.95936 309.743 7.49288 309.429 7.91969C308.964 8.55059 308.287 8.83755 307.619 8.68527C306.993 8.54334 306.51 8.04038 306.388 7.40326C306.244 6.64442 306.737 5.90682 307.487 5.75868L307.683 6.74957C307.476 6.79049 307.34 6.99924 307.381 7.2142C307.427 7.45662 307.608 7.64723 307.842 7.70006C308.116 7.76222 308.389 7.62703 308.615 7.32038C308.763 7.11941 308.823 6.87337 308.779 6.64494C308.686 6.15804 308.321 5.77267 307.848 5.66285C307.317 5.54061 306.774 5.78872 306.357 6.344C306.063 6.73456 305.95 7.1971 306.037 7.64671C306.048 7.70006 306.059 7.75135 306.073 7.80159C306.243 8.4413 306.708 8.92665 307.347 9.13488C308.021 9.35347 308.752 9.21827 309.3 8.77281L309.366 8.71894C309.832 8.36101 310.359 7.70939 310.754 7.00856C312.029 4.70666 313.906 4.63932 314.209 4.62171C314.684 4.58804 315.147 4.74344 315.512 5.05526C315.89 5.37744 316.12 5.83015 316.159 6.32897C316.226 7.19296 315.586 7.95803 314.733 8.03417C314.358 8.06887 313.97 7.92487 313.691 7.65345C313.292 7.26341 313.156 6.74749 313.327 6.27302C313.415 6.02905 313.579 5.82549 313.785 5.68615C313.263 5.80995 312.351 6.21036 311.636 7.50065C311.17 8.32787 310.557 9.07789 309.993 9.5104L309.938 9.55547C309.38 10.0097 308.695 10.2475 307.996 10.2475ZM314.36 5.62763L314.43 6.49577C314.347 6.5025 314.297 6.56466 314.278 6.61594C314.244 6.71021 314.287 6.82209 314.398 6.93035C314.466 6.99665 314.564 7.03497 314.644 7.02772C314.949 7.00079 315.178 6.72211 315.153 6.40718C315.135 6.17772 315.03 5.97001 314.858 5.8229C314.716 5.7017 314.541 5.63385 314.36 5.62763Z" fill="#550000"/>
<path d="M306 4.99805H0V6.00812H306V4.99805Z" fill="#550000"/>
</svg>
